<?xml version="1.0" standalone="no"?>
<!DOCTYPE svg PUBLIC "-//W3C//DTD SVG 1.1//EN" "http://www.w3.org/Graphics/SVG/1.1/DTD/svg11.dtd" >
<svg xmlns="http://www.w3.org/2000/svg">
<metadata>Generated by IcoMoon</metadata>
<defs>
<font id="icomoon" horiz-adv-x="1024">
<font-face units-per-em="1024" ascent="960" descent="-64" />
<missing-glyph horiz-adv-x="1024" />
<glyph unicode="&#x20;" horiz-adv-x="512" d="" />
<glyph unicode="&#xe900;" glyph-name="user" d="M486.4 872.789c-69.931-7.893-133.931-53.163-165.291-116.949-15.701-31.915-21.589-57.643-21.589-94.507 0-28.587 2.475-44.544 10.581-68.267 24.661-72.149 84.693-124.8 160.939-141.099 20.096-4.309 61.824-4.309 81.92 0 65.195 13.952 118.955 54.485 148.181 111.744 17.28 33.877 23.339 59.264 23.339 97.621s-6.059 63.744-23.339 97.579c-27.264 53.419-78.037 93.995-136.235 108.843-24.363 6.229-52.096 8.021-78.507 5.035zM548.736 783.829c40.235-11.776 73.515-44.971 85.931-85.76 3.541-11.648 4.181-17.195 4.181-36.736s-0.64-25.088-4.181-36.736c-12.501-41.003-45.056-73.387-86.827-86.4-18.517-5.76-53.163-5.76-71.68 0-41.771 13.013-74.325 45.397-86.827 86.4-3.541 11.648-4.181 17.195-4.181 36.736s0.64 25.088 4.181 36.736c14.123 46.293 53.163 80.811 101.291 89.557 14.208 2.56 42.709 0.725 58.112-3.797zM315.733 360.789c-69.931-7.893-133.931-53.163-165.291-116.949-8.235-16.725-14.464-34.731-18.475-53.547-2.688-12.544-3.115-22.997-3.115-76.928v-62.421l5.163-8.405c17.152-27.861 56.149-27.861 73.301 0l5.163 8.363 0.981 60.757c0.939 58.069 1.195 61.312 5.163 74.411 12.629 41.216 46.549 74.709 87.637 86.485l13.739 3.925h384l13.739-3.925c41.088-11.776 75.008-45.269 87.637-86.485 3.968-13.099 4.224-16.341 5.163-74.411l0.981-60.757 5.163-8.363c17.152-27.861 56.149-27.861 73.301 0l5.163 8.405v62.421c0 53.931-0.427 64.384-3.115 76.928-12.032 56.277-44.544 105.131-89.899 135.083-32.171 21.291-59.904 31.531-95.915 35.456-19.968 2.219-371.072 2.133-390.485-0.043z" />
<glyph unicode="&#xe901;" glyph-name="user-check" d="M336.683 872.789c-80.256-9.344-149.333-65.835-176.299-144.128-14.421-41.941-13.995-95.744 1.152-137.685 23.040-63.872 71.381-111.232 134.741-131.968 138.027-45.227 279.125 57.088 279.125 202.325 0 128.171-110.848 226.347-238.72 211.456zM395.563 785.28c45.227-12.459 82.475-51.072 91.733-95.061 3.328-15.872 3.2-43.051-0.256-58.411-10.752-47.787-49.707-85.717-98.304-95.744-50.133-10.368-100.523 9.429-130.432 51.285-15.787 22.101-22.784 44.843-22.784 73.984 0 34.731 10.496 62.165 33.237 86.827 15.829 17.195 43.648 33.536 64.043 37.589 5.163 1.024 10.923 2.219 12.8 2.645 6.485 1.493 41.003-0.64 49.963-3.115zM965.973 615.765c-6.485-2.261-18.944-13.909-81.451-76.16l-73.771-73.472-31.189 30.72c-26.283 25.941-32.512 31.232-39.595 33.621-20.395 6.912-40.96-0.683-51.84-19.157-3.925-6.656-4.608-9.771-4.565-20.651 0-9.088 0.939-14.549 3.157-18.773 4.352-8.235 93.952-98.133 103.467-103.808 6.528-3.883 9.6-4.565 20.48-4.523 9.045 0 14.549 0.939 18.773 3.157 8.192 4.267 183.424 179.2 189.141 188.8 3.883 6.485 4.565 9.643 4.565 20.48s-0.725 13.995-4.608 20.651c-10.88 18.475-32.043 26.155-52.565 19.115zM187.733 360.789c-69.931-7.893-133.931-53.163-165.291-116.949-8.235-16.725-14.464-34.731-18.475-53.547-2.688-12.544-3.115-22.997-3.115-76.928v-62.421l5.163-8.405c17.152-27.861 56.149-27.861 73.301 0l5.163 8.363 1.024 60.757c1.109 67.883 1.579 71.040 13.483 94.848 15.787 31.445 45.781 56.448 79.275 66.048l13.739 3.925h341.333l13.739-3.925c41.088-11.776 75.008-45.269 87.637-86.485 3.968-13.099 4.224-16.341 5.163-74.411l0.981-60.757 5.163-8.363c17.152-27.861 56.149-27.861 73.301 0l5.163 8.405v62.421c0 53.931-0.427 64.384-3.115 76.928-12.032 56.277-44.544 105.131-89.899 135.083-32.171 21.291-59.904 31.531-95.915 35.456-19.925 2.219-328.448 2.133-347.819-0.043z" />
<glyph unicode="&#xe902;" glyph-name="user-minus" d="M336.683 872.789c-80.256-9.344-149.333-65.835-176.299-144.128-14.421-41.941-13.995-95.744 1.152-137.685 23.040-63.872 71.381-111.232 134.741-131.968 138.027-45.227 279.125 57.088 279.125 202.325 0 128.171-110.848 226.347-238.72 211.456zM395.563 785.28c45.227-12.459 82.475-51.072 91.733-95.061 3.328-15.872 3.2-43.051-0.256-58.411-10.752-47.787-49.707-85.717-98.304-95.744-50.133-10.368-100.523 9.429-130.432 51.285-15.787 22.101-22.784 44.843-22.784 73.984 0 34.731 10.496 62.165 33.237 86.827 15.829 17.195 43.648 33.536 64.043 37.589 5.163 1.024 10.923 2.219 12.8 2.645 6.485 1.493 41.003-0.64 49.963-3.115zM712.32 530.901c-9.771-3.072-18.731-10.325-24.192-19.584-3.883-6.656-4.608-9.813-4.608-20.651 0-10.923 0.683-13.995 4.736-20.864 5.333-9.088 13.568-16 22.997-19.371s274.731-3.371 284.16 0c9.429 3.371 17.664 10.283 22.997 19.371 4.053 6.869 4.736 9.941 4.736 20.864 0 10.837-0.725 13.995-4.608 20.651-5.632 9.515-14.464 16.555-24.832 19.669-11.093 3.328-270.72 3.243-281.387-0.085zM187.733 360.789c-69.931-7.893-133.931-53.163-165.291-116.949-8.235-16.725-14.464-34.731-18.475-53.547-2.688-12.544-3.115-22.997-3.115-76.928v-62.421l5.163-8.405c17.152-27.861 56.149-27.861 73.301 0l5.163 8.363 1.024 60.757c1.109 67.883 1.579 71.040 13.483 94.848 15.787 31.445 45.781 56.448 79.275 66.048l13.739 3.925h341.333l13.739-3.925c41.088-11.776 75.008-45.269 87.637-86.485 3.968-13.099 4.224-16.341 5.163-74.411l0.981-60.757 5.163-8.363c17.152-27.861 56.149-27.861 73.301 0l5.163 8.405v62.421c0 53.931-0.427 64.384-3.115 76.928-12.032 56.277-44.544 105.131-89.899 135.083-32.171 21.291-59.904 31.531-95.915 35.456-19.925 2.219-328.448 2.133-347.819-0.043z" />
<glyph unicode="&#xe903;" glyph-name="user-plus" d="M336.683 872.789c-80.256-9.344-149.333-65.835-176.299-144.128-14.421-41.941-13.995-95.744 1.152-137.685 23.040-63.872 71.381-111.232 134.741-131.968 138.027-45.227 279.125 57.088 279.125 202.325 0 128.171-110.848 226.347-238.72 211.456zM395.563 785.28c45.227-12.459 82.475-51.072 91.733-95.061 3.328-15.872 3.2-43.051-0.256-58.411-10.752-47.787-49.707-85.717-98.304-95.744-50.133-10.368-100.523 9.429-130.432 51.285-15.787 22.101-22.784 44.843-22.784 73.984 0 34.731 10.496 62.165 33.237 86.827 15.829 17.195 43.648 33.536 64.043 37.589 5.163 1.024 10.923 2.219 12.8 2.645 6.485 1.493 41.003-0.64 49.963-3.115zM840.32 658.901c-9.771-3.072-18.731-10.325-24.192-19.584l-4.608-7.851-0.512-49.067-0.555-49.067h-44.843c-48.939 0-55.509-0.939-66.645-9.429-3.413-2.603-8.32-8.277-10.837-12.587-3.883-6.656-4.608-9.813-4.608-20.651 0-10.923 0.683-13.995 4.736-20.864 2.603-4.395 7.381-10.069 10.667-12.544 11.136-8.533 15.232-9.088 65.152-9.173l46.379-0.085 0.555-49.195 0.512-49.237 5.163-8.363c17.152-27.861 56.149-27.861 73.301 0l5.163 8.363 0.512 49.237 0.555 49.195 46.379 0.085c49.92 0.085 54.016 0.64 65.152 9.173 3.285 2.475 8.064 8.149 10.667 12.544 4.053 6.869 4.736 9.941 4.736 20.864 0 10.837-0.725 13.995-4.608 20.651-2.517 4.309-7.424 9.984-10.837 12.587-11.136 8.491-17.707 9.429-66.645 9.429h-44.843l-0.555 49.067-0.512 49.067-4.608 7.851c-10.411 17.707-30.805 25.643-50.219 19.584zM187.733 360.789c-69.931-7.893-133.931-53.163-165.291-116.949-8.235-16.725-14.464-34.731-18.475-53.547-2.688-12.544-3.115-22.997-3.115-76.928v-62.421l5.163-8.405c17.152-27.861 56.149-27.861 73.301 0l5.163 8.363 1.024 60.757c1.109 67.883 1.579 71.040 13.483 94.848 15.787 31.445 45.781 56.448 79.275 66.048l13.739 3.925h341.333l13.739-3.925c41.088-11.776 75.008-45.269 87.637-86.485 3.968-13.099 4.224-16.341 5.163-74.411l0.981-60.757 5.163-8.363c17.152-27.861 56.149-27.861 73.301 0l5.163 8.405v62.421c0 53.931-0.427 64.384-3.115 76.928-12.032 56.277-44.544 105.131-89.899 135.083-32.171 21.291-59.904 31.531-95.915 35.456-19.925 2.219-328.448 2.133-347.819-0.043z" />
<glyph unicode="&#xe904;" glyph-name="users" d="M358.4 872.789c-69.931-7.893-133.931-53.163-165.291-116.949-15.701-31.915-21.589-57.643-21.589-94.507 0-28.587 2.475-44.544 10.581-68.267 24.661-72.149 84.693-124.8 160.939-141.099 20.096-4.309 61.824-4.309 81.92 0 65.195 13.952 118.955 54.485 148.181 111.744 17.28 33.877 23.339 59.264 23.339 97.621s-6.059 63.744-23.339 97.579c-27.264 53.419-78.037 93.995-136.235 108.843-24.363 6.229-52.096 8.021-78.507 5.035zM672.981 868.011c-30.336-7.68-42.581-42.837-23.595-67.712 6.059-7.979 12.331-11.691 29.013-17.109 41.472-13.568 71.936-44.501 84.736-86.016 3.243-10.539 3.968-16.683 3.968-34.987 0.043-26.24-1.92-35.456-11.947-56.32-16.213-33.707-40.661-54.613-79.104-67.627-16.853-5.675-24.107-10.795-30.165-21.077-15.573-26.581 2.176-60.757 32.981-63.573 8.235-0.725 12.8 0.128 28.032 5.205 32.469 10.88 58.88 26.709 81.451 48.853 44.587 43.691 66.859 99.371 64.512 161.152-0.981 25.728-3.712 41.387-10.88 62.251-17.024 49.749-57.131 95.829-103.808 119.296-27.904 14.037-52.821 20.779-65.195 17.664zM420.736 783.829c40.235-11.776 73.515-44.971 85.931-85.76 3.541-11.648 4.181-17.195 4.181-36.736s-0.64-25.088-4.181-36.736c-12.501-41.003-45.056-73.387-86.827-86.4-18.517-5.76-53.163-5.76-71.68 0-41.771 13.013-74.325 45.397-86.827 86.4-3.541 11.648-4.181 17.195-4.181 36.736s0.64 25.088 4.181 36.736c14.123 46.293 53.163 80.811 101.291 89.557 14.208 2.56 42.709 0.725 58.112-3.797zM187.733 360.789c-69.931-7.893-133.931-53.163-165.291-116.949-8.235-16.725-14.464-34.731-18.475-53.547-2.688-12.544-3.115-22.997-3.115-76.928v-62.421l5.163-8.405c17.152-27.861 56.149-27.861 73.301 0l5.163 8.363 1.024 60.757c1.109 67.883 1.579 71.040 13.483 94.848 15.787 31.445 45.781 56.448 79.275 66.048l13.739 3.925h384l13.739-3.925c41.088-11.776 75.008-45.269 87.637-86.485 3.968-13.099 4.224-16.341 5.163-74.411l0.981-60.757 5.163-8.363c17.152-27.861 56.149-27.861 73.301 0l5.163 8.405v62.421c0 53.931-0.427 64.384-3.115 76.928-12.032 56.277-44.544 105.131-89.899 135.083-32.171 21.291-59.904 31.531-95.915 35.456-19.968 2.219-371.072 2.133-390.485-0.043zM843.648 356.011c-20.693-5.248-34.603-24.875-32.469-45.739 1.707-16.469 12.245-29.824 27.989-35.584 23.381-8.533 31.36-12.117 41.472-18.731 19.499-12.715 38.912-35.584 47.829-56.363 8.363-19.541 8.917-24.235 9.984-87.936l1.067-60.757 5.163-8.363c17.152-27.861 56.149-27.861 73.301 0l5.163 8.405v63.275c0 55.381-0.384 65.067-3.2 77.781-16.384 74.795-69.504 134.827-140.544 158.848-16.384 5.547-27.733 7.168-35.755 5.163z" />
<glyph unicode="&#xe905;" glyph-name="user-x" d="M336.683 872.789c-80.256-9.344-149.333-65.835-176.299-144.128-14.421-41.941-13.995-95.744 1.152-137.685 23.040-63.872 71.381-111.232 134.741-131.968 138.027-45.227 279.125 57.088 279.125 202.325 0 128.171-110.848 226.347-238.72 211.456zM395.563 785.28c45.227-12.459 82.475-51.072 91.733-95.061 3.328-15.872 3.2-43.051-0.256-58.411-10.752-47.787-49.707-85.717-98.304-95.744-50.133-10.368-100.523 9.429-130.432 51.285-15.787 22.101-22.784 44.843-22.784 73.984 0 34.731 10.496 62.165 33.237 86.827 15.829 17.195 43.648 33.536 64.043 37.589 5.163 1.024 10.923 2.219 12.8 2.645 6.485 1.493 41.003-0.64 49.963-3.115zM753.92 658.731c-9.472-3.456-17.92-10.581-23.125-19.413-3.883-6.656-4.608-9.813-4.608-20.651s0.683-13.995 4.565-20.48c2.517-4.224 22.315-25.344 43.947-46.891l39.339-39.253-40.747-40.96c-22.4-22.571-42.069-43.605-43.648-46.763-9.771-19.371-1.92-44.629 17.365-55.979 7.040-4.139 10.027-4.821 20.992-4.821 10.837 0 13.995 0.683 20.48 4.565 4.224 2.517 25.344 22.315 46.891 43.947l39.253 39.339 40.96-40.747c22.571-22.4 43.691-42.155 46.976-43.904 4.224-2.219 9.685-3.157 18.773-3.157 11.008-0.043 13.952 0.64 20.992 4.779 9.472 5.547 17.451 15.744 20.181 25.728 2.304 8.661 1.024 22.656-2.816 30.251-1.579 3.157-21.248 24.192-43.648 46.763l-40.747 40.96 39.339 39.253c21.632 21.547 41.429 42.667 43.947 46.891 3.883 6.485 4.565 9.643 4.565 20.48s-0.725 13.995-4.608 20.651c-10.837 18.432-31.403 26.069-51.84 19.2-7.296-2.475-13.952-8.363-50.219-44.288l-41.813-41.472-41.813 41.472c-36.224 35.925-42.923 41.813-50.219 44.288-10.027 3.371-19.968 3.456-28.715 0.213zM187.733 360.789c-69.931-7.893-133.931-53.163-165.291-116.949-8.235-16.725-14.464-34.731-18.475-53.547-2.688-12.544-3.115-22.997-3.115-76.928v-62.421l5.163-8.405c17.152-27.861 56.149-27.861 73.301 0l5.163 8.363 1.024 60.757c1.109 67.883 1.579 71.040 13.483 94.848 15.787 31.445 45.781 56.448 79.275 66.048l13.739 3.925h341.333l13.739-3.925c41.088-11.776 75.008-45.269 87.637-86.485 3.968-13.099 4.224-16.341 5.163-74.411l0.981-60.757 5.163-8.363c17.152-27.861 56.149-27.861 73.301 0l5.163 8.405v62.421c0 53.931-0.427 64.384-3.115 76.928-12.032 56.277-44.544 105.131-89.899 135.083-32.171 21.291-59.904 31.531-95.915 35.456-19.925 2.219-328.448 2.133-347.819-0.043z" />
<glyph unicode="&#xe906;" glyph-name="x" d="M241.92 744.064c-9.472-3.456-17.92-10.581-23.125-19.413-3.925-6.656-4.608-9.771-4.565-20.651 0-9.045 0.939-14.549 3.157-18.773 1.707-3.285 55.083-58.027 118.571-121.6l115.413-115.627-115.413-115.627c-63.488-63.573-116.864-118.315-118.571-121.6-2.219-4.224-3.157-9.728-3.157-18.773-0.043-11.008 0.64-13.952 4.779-20.992 5.547-9.472 15.744-17.451 25.728-20.181 8.619-2.304 22.613-1.024 30.251 2.816 3.157 1.579 57.813 54.827 121.387 118.315l115.627 115.413 115.627-115.413c63.573-63.488 118.315-116.864 121.6-118.571 4.224-2.219 9.728-3.157 18.773-3.157 11.008-0.043 13.952 0.64 20.992 4.779 9.472 5.547 17.451 15.744 20.181 25.728 2.304 8.619 1.024 22.613-2.816 30.251-1.579 3.157-54.827 57.813-118.315 121.387l-115.413 115.627 115.413 115.627c63.488 63.573 116.864 118.315 118.571 121.6 2.219 4.224 3.157 9.728 3.157 18.773 0.043 10.88-0.64 13.995-4.565 20.651-10.837 18.432-31.317 26.027-51.84 19.243-7.637-2.56-19.072-13.44-124.885-118.997l-116.48-116.224-116.48 116.224c-105.813 105.557-117.248 116.437-124.885 118.997-10.069 3.328-20.011 3.371-28.715 0.171z" />
<glyph unicode="&#xe907;" glyph-name="x-circle" d="M481.28 916.352c-3.285-0.384-14.037-1.536-23.893-2.56-80.555-8.533-159.104-40.107-228.693-91.819-25.984-19.328-71.509-64.853-91.051-90.965-106.581-142.805-124.8-327.040-48.171-486.955 23.296-48.555 50.304-86.229 91.349-127.232 41.003-41.045 78.677-68.053 127.232-91.349 159.872-76.629 344.235-58.325 487.125 48.341 25.984 19.371 71.637 65.024 91.008 91.008 126.891 170.027 126.891 396.331 0 566.357-19.371 25.941-64.981 71.552-90.88 90.795-68.053 50.603-139.733 80-222.592 91.264-18.048 2.475-78.891 4.523-91.435 3.115zM568.32 827.691c109.355-16.512 204.971-78.080 266.24-171.477 12.928-19.755 31.701-57.984 39.765-81.067 14.763-42.368 20.693-78.72 20.693-127.147 0-63.701-10.965-111.829-38.272-168.107-30.080-62.037-75.477-113.792-134.528-153.259-33.664-22.528-87.509-45.056-128.811-53.973-112.725-24.277-231.637 3.797-321.621 75.861-64.555 51.712-112.981 127.573-132.395 207.317-7.936 32.555-10.411 54.272-10.411 92.16 0 63.701 10.965 111.829 38.272 168.107 44.843 92.544 126.165 163.797 223.573 196.011 30.080 9.941 54.272 14.848 93.013 18.859 13.739 1.408 67.029-0.64 84.48-3.285zM369.92 616.064c-9.472-3.456-17.92-10.581-23.125-19.413-3.925-6.656-4.608-9.771-4.565-20.651 0-9.088 0.939-14.549 3.157-18.773 1.749-3.285 26.283-29.227 54.571-57.6l51.371-51.627-51.371-51.627c-28.288-28.416-52.736-54.229-54.315-57.387-9.771-19.371-1.92-44.629 17.365-55.979 7.040-4.139 9.984-4.821 20.992-4.779 9.088 0 14.549 0.939 18.773 3.157 3.285 1.749 29.227 26.283 57.6 54.571l51.627 51.371 51.627-51.371c28.416-28.288 54.229-52.736 57.387-54.315 19.371-9.771 44.629-1.92 55.979 17.365 4.139 7.040 4.821 9.984 4.779 20.992 0 9.088-0.939 14.549-3.157 18.773-1.749 3.285-26.283 29.184-54.571 57.6l-51.371 51.627 51.371 51.627c28.288 28.373 52.821 54.315 54.571 57.6 2.219 4.224 3.157 9.685 3.157 18.773 0.043 10.88-0.64 13.995-4.565 20.651-10.837 18.432-31.36 26.069-51.84 19.2-7.381-2.475-14.72-9.088-60.885-54.955l-52.48-52.139-52.48 52.139c-46.165 45.867-53.504 52.48-60.885 54.955-10.027 3.371-19.968 3.456-28.715 0.213z" />
<glyph unicode="&#xe908;" glyph-name="zap" d="M543.36 915.456c-2.944-0.853-8.917-4.011-13.269-7.083-5.333-3.755-77.483-89.173-223.019-263.979-118.315-142.165-216.32-260.693-217.728-263.467-7.467-14.464-3.627-35.797 8.704-48.128 13.525-13.525 2.304-12.8 194.645-12.8h170.88l-18.773-150.272c-16.981-135.851-18.603-151.083-16.683-158.293 7.808-30.037 41.856-42.197 66.347-23.723 7.509 5.717 435.669 518.613 440.192 527.36 7.467 14.464 3.627 35.797-8.704 48.128-13.525 13.525-2.304 12.8-194.603 12.8h-170.923l18.859 150.827 18.816 150.784-3.115 9.813c-6.827 21.675-30.080 34.304-51.627 28.032zM481.195 631.595c-8.533-68.053-11.904-100.48-11.136-105.813 1.579-10.453 10.283-22.827 20.48-29.099l8.405-5.163 305.323-1.707-136.32-163.584c-74.965-89.984-136.533-162.517-136.789-161.237-0.299 1.323 4.949 45.781 11.648 98.773 7.723 61.312 11.776 99.371 11.179 104.619-1.579 14.208-11.904 27.648-26.069 33.963-3.712 1.621-40.32 2.347-156.501 2.987l-151.68 0.853 136.277 163.541c74.965 89.941 136.533 162.731 136.875 161.792 0.299-0.981-4.949-45.952-11.691-99.925z" />
<glyph unicode="&#xe909;" glyph-name="zap-off" d="M29.653 957.568c-9.771-3.072-18.731-10.325-24.192-19.584-3.925-6.656-4.608-9.771-4.565-20.651 0-9.045 0.939-14.549 3.157-18.773 1.707-3.285 65.28-68.224 141.312-144.341l138.155-138.368-95.787-114.944c-52.693-63.232-96.981-117.205-98.389-119.979-7.467-14.464-3.627-35.797 8.704-48.128 13.525-13.525 2.304-12.8 194.645-12.8h170.88l-18.773-150.272c-16.981-135.851-18.603-151.083-16.683-158.293 7.552-29.056 39.424-41.472 64.725-25.259 3.029 1.963 47.573 54.059 98.987 115.712l93.397 112.128 135.68-135.424c74.624-74.496 138.368-136.832 141.653-138.539 4.224-2.219 9.728-3.157 18.773-3.157 11.008-0.043 13.952 0.64 20.992 4.779 20.309 11.947 27.605 38.4 15.915 57.984-2.347 3.925-217.6 220.416-478.379 481.067-466.048 465.792-474.325 473.941-483.413 476.587-10.965 3.2-17.237 3.243-26.795 0.256zM543.36 915.456c-12.16-3.499-21.803-13.44-74.155-76.501-29.184-35.157-54.699-67.029-56.704-70.827-4.693-8.917-4.907-26.368-0.469-35.115 5.163-10.069 16.213-20.181 25.429-23.211 17.28-5.76 34.432-0.384 47.915 15.019 9.259 10.624 9.045 11.989 4.352-25.088-1.92-15.275-2.944-30.336-2.304-34.133 4.096-25.301 29.44-41.515 53.845-34.347 11.861 3.456 20.651 10.923 26.027 22.016 3.84 7.936 5.717 20.608 17.536 116.693l13.227 107.776-3.072 9.771c-6.827 21.589-30.123 34.219-51.627 27.947zM657.067 574.421c-19.029-5.803-31.061-21.717-31.061-41.088 0-16.427 8.32-29.995 23.381-38.144 6.613-3.541 9.045-3.712 80.683-4.523l73.899-0.853-24.875-29.867c-20.395-24.491-25.344-31.488-27.563-38.997-7.893-27.093 12.117-53.845 40.363-53.931 20.907-0.085 20.651-0.341 83.072 74.496 30.464 36.565 56.96 69.035 58.837 72.235 8.491 14.421 4.992 36.608-7.851 49.451-13.269 13.269-8.235 12.8-144.171 12.672-66.261-0.085-122.368-0.768-124.715-1.451zM424.96 405.76c-37.547-0.256-99.072-0.256-136.747 0l-68.48 0.427 124.16 149.163 149.333-149.163-68.267-0.427zM623.275 273.024c-4.779-7.936-91.733-109.909-92.117-108.032-0.427 2.091 18.219 156.075 21.12 174.421l1.067 6.613 35.541-35.499c21.547-21.547 35.115-36.309 34.389-37.504z" />
<glyph unicode="&#xe90a;" glyph-name="zoom-in" d="M441.173 873.643c-56.064-5.803-95.957-16.683-139.947-38.144-77.483-37.803-137.387-97.451-175.829-175.019-53.376-107.605-53.376-232.021 0-339.627 19.84-40.021 40.875-69.504 71.765-100.565 116.395-116.907 292.821-146.773 440.277-74.496 22.528 11.051 46.805 25.771 63.915 38.827l7.595 5.803 81.152-80.939c44.629-44.544 83.755-82.261 86.912-83.84 19.413-9.771 44.629-1.92 55.979 17.365 4.139 7.040 4.821 9.984 4.779 20.992 0 9.045-0.939 14.549-3.157 18.773-1.707 3.285-39.552 42.496-84.096 87.125l-80.939 81.152 5.803 7.595c13.056 17.109 27.776 41.387 38.827 63.915 52.011 106.112 52.011 230.059 0.043 336.213-55.936 114.176-162.901 192.597-288.597 211.584-17.451 2.645-70.741 4.693-84.48 3.285zM516.352 785.152c127.872-19.328 229.931-123.179 248.405-252.672 2.816-19.755 2.816-63.872 0-83.627-18.645-130.859-119.381-232.277-251.904-253.696-17.621-2.816-69.419-2.816-87.040 0-132.565 21.419-233.259 122.837-251.904 253.696-4.651 32.555-2.304 80.512 5.504 112.64 26.027 107.179 111.744 192.939 219.093 219.093 12.117 2.987 30.891 5.803 51.2 7.765 11.648 1.109 50.603-0.768 66.645-3.2zM456.32 658.901c-9.771-3.072-18.731-10.325-24.192-19.584l-4.608-7.851-0.512-49.067-0.555-49.067h-44.843c-48.939 0-55.509-0.939-66.645-9.429-3.413-2.603-8.32-8.277-10.837-12.587-3.883-6.656-4.608-9.813-4.608-20.651 0-10.923 0.683-13.995 4.736-20.864 2.603-4.395 7.381-10.069 10.667-12.544 11.136-8.533 15.232-9.088 65.152-9.173l46.379-0.085 0.555-49.195 0.512-49.237 5.163-8.363c17.152-27.861 56.149-27.861 73.301 0l5.163 8.363 0.512 49.237 0.555 49.195 46.379 0.085c49.92 0.085 54.016 0.64 65.152 9.173 3.285 2.475 8.064 8.149 10.667 12.544 4.053 6.869 4.736 9.941 4.736 20.864 0 10.837-0.725 13.995-4.608 20.651-2.517 4.309-7.424 9.984-10.837 12.587-11.136 8.491-17.707 9.429-66.645 9.429h-44.843l-0.555 49.067-0.512 49.067-4.608 7.851c-10.411 17.707-30.805 25.643-50.219 19.584z" />
<glyph unicode="&#xe90b;" glyph-name="zoom-out" d="M441.173 873.643c-56.064-5.803-95.957-16.683-139.947-38.144-77.483-37.803-137.387-97.451-175.829-175.019-53.376-107.605-53.376-232.021 0-339.627 19.84-40.021 40.875-69.504 71.765-100.565 116.395-116.907 292.821-146.773 440.277-74.496 22.528 11.051 46.805 25.771 63.915 38.827l7.595 5.803 81.152-80.939c44.629-44.544 83.755-82.261 86.912-83.84 19.413-9.771 44.629-1.92 55.979 17.365 4.139 7.040 4.821 9.984 4.779 20.992 0 9.045-0.939 14.549-3.157 18.773-1.707 3.285-39.552 42.496-84.096 87.125l-80.939 81.152 5.803 7.595c13.056 17.109 27.776 41.387 38.827 63.915 52.011 106.112 52.011 230.059 0.043 336.213-55.936 114.176-162.901 192.597-288.597 211.584-17.451 2.645-70.741 4.693-84.48 3.285zM516.352 785.152c127.872-19.328 229.931-123.179 248.405-252.672 2.816-19.755 2.816-63.872 0-83.627-18.645-130.859-119.381-232.277-251.904-253.696-17.621-2.816-69.419-2.816-87.040 0-132.565 21.419-233.259 122.837-251.904 253.696-4.651 32.555-2.304 80.512 5.504 112.64 26.027 107.179 111.744 192.939 219.093 219.093 12.117 2.987 30.891 5.803 51.2 7.765 11.648 1.109 50.603-0.768 66.645-3.2zM328.32 530.901c-9.771-3.072-18.731-10.325-24.192-19.584-3.883-6.656-4.608-9.813-4.608-20.651 0-10.923 0.683-13.995 4.736-20.864 5.333-9.088 13.568-16 22.997-19.371s274.731-3.371 284.16 0c9.429 3.371 17.664 10.283 22.997 19.371 4.053 6.869 4.736 9.941 4.736 20.864 0 10.837-0.725 13.995-4.608 20.651-5.632 9.515-14.464 16.555-24.832 19.669-11.093 3.328-270.72 3.243-281.387-0.085z" />
<glyph unicode="&#xe90c;" glyph-name="clipboard" d="M361.685 914.219c-28.629-7.509-52.864-32-60.459-61.227-1.408-5.376-2.56-12.203-2.56-15.189v-5.419l-32.853-0.811c-28.288-0.725-34.731-1.408-46.549-4.949-40.875-12.331-73.344-44.928-86.4-86.784l-4.011-12.8v-643.413l4.011-12.8c13.141-42.112 45.184-74.155 87.296-87.296l12.8-4.011h558.080l12.8 4.011c42.112 13.141 74.155 45.184 87.296 87.296l4.011 12.8v643.413l-4.011 12.8c-13.056 41.856-45.525 74.453-86.4 86.784-11.776 3.541-18.261 4.224-46.208 4.949l-32.469 0.811-2.091 12.971c-1.109 7.125-4.224 17.579-6.912 23.296-6.016 12.885-20.693 28.885-33.664 36.693-20.011 12.032-16.256 11.776-171.392 11.776-125.995 0-140.16-0.256-150.315-2.901zM640 789.333v-42.667h-256v85.333h256v-42.667zM298.667 741.035c0-8.149 4.437-23.808 9.6-34.048 5.803-11.477 24.576-30.251 36.053-36.053 19.285-9.771 16.384-9.6 167.381-9.6 151.296 0 148.736-0.128 168.277 9.771 11.093 5.632 29.952 24.491 35.584 35.584 4.992 9.813 9.771 26.795 9.771 34.688v5.291h23.595c29.696 0 38.101-2.219 48.811-12.928 13.952-13.995 12.928 12.544 12.928-328.448 0-251.989-0.384-304.512-2.347-310.997-3.115-10.368-10.155-19.2-19.669-24.832l-7.851-4.608h-537.6l-7.851 4.608c-4.309 2.517-9.899 7.339-12.416 10.624-10.197 13.397-9.6-7.339-9.6 324.309 0 342.059-1.067 315.349 12.971 329.344 10.667 10.709 18.048 12.672 48.043 12.8l24.32 0.128v-5.632z" />
<glyph unicode="&#xe90d;" glyph-name="code" d="M325.973 743.765c-6.613-2.261-25.771-20.693-140.501-135.125-75.819-75.648-134.784-135.765-137.387-140.16-3.883-6.485-4.565-9.643-4.565-20.48s0.683-13.995 4.565-20.48c5.803-9.685 266.368-269.952 274.261-273.877 19.413-9.771 44.629-1.92 55.979 17.365 4.139 7.040 4.821 9.984 4.779 20.992 0 9.045-0.939 14.549-3.157 18.773-1.707 3.285-55.083 58.027-118.571 121.6l-115.413 115.627 115.413 115.627c63.488 63.573 116.864 118.315 118.571 121.6 2.219 4.224 3.157 9.728 3.157 18.773 0.043 10.88-0.64 13.995-4.565 20.651-10.88 18.475-32 26.155-52.565 19.115zM668.587 744.064c-9.472-3.456-17.92-10.581-23.125-19.413-3.925-6.656-4.608-9.771-4.565-20.651 0-9.045 0.939-14.549 3.157-18.773 1.707-3.285 55.083-58.027 118.571-121.6l115.413-115.627-115.413-115.627c-63.488-63.573-116.864-118.315-118.571-121.6-2.219-4.224-3.157-9.728-3.157-18.773-0.043-11.008 0.64-13.952 4.779-20.992 5.547-9.472 15.744-17.451 25.728-20.181 8.619-2.304 22.613-1.024 30.251 2.816 7.893 3.925 268.459 264.192 274.261 273.877 3.883 6.485 4.565 9.643 4.565 20.48s-0.683 13.995-4.565 20.48c-2.603 4.395-61.525 64.512-137.387 140.16-121.003 120.661-133.589 132.693-141.227 135.253-10.069 3.328-20.011 3.371-28.715 0.171z" />
<glyph unicode="&#xe90e;" glyph-name="columns" d="M191.957 872.832c-47.744-8.064-86.955-42.88-101.76-90.325l-4.011-12.8v-643.413l4.011-12.8c13.141-42.112 45.184-74.155 87.296-87.296l12.8-4.011h643.413l12.8 4.011c42.112 13.141 74.155 45.184 87.296 87.296l4.011 12.8v643.413l-4.011 12.8c-13.013 41.728-44.971 73.899-86.4 86.997l-13.696 4.309-316.587 0.256c-174.123 0.128-320.469-0.427-325.163-1.237zM469.333 447.957v-341.376l-268.8 0.939-7.851 4.608c-4.309 2.517-9.899 7.339-12.416 10.624-10.197 13.397-9.6-7.339-9.6 324.309 0 342.059-1.067 315.349 12.971 329.344 13.184 13.184 6.827 12.672 154.709 12.8l130.987 0.128v-341.376zM823.893 786.731c11.904-3.541 23.296-14.933 26.837-26.837 2.304-7.68 2.603-45.44 2.603-311.936 0-251.989-0.384-304.512-2.347-310.997-3.115-10.368-10.155-19.2-19.669-24.832l-7.851-4.608-268.8-0.939v682.752h130.261c111.616 0 131.499-0.384 138.965-2.603z" />
<glyph unicode="&#xe90f;" glyph-name="compass" d="M481.28 916.352c-3.285-0.384-14.037-1.536-23.893-2.56-80.555-8.533-159.104-40.107-228.693-91.819-25.984-19.328-71.509-64.853-91.051-90.965-106.581-142.805-124.8-327.040-48.171-486.955 23.296-48.555 50.304-86.229 91.349-127.232 41.003-41.045 78.677-68.053 127.232-91.349 159.872-76.629 344.235-58.325 487.125 48.341 25.984 19.371 71.637 65.024 91.008 91.008 126.891 170.027 126.891 396.331 0 566.357-19.371 25.941-64.981 71.552-90.88 90.795-68.053 50.603-139.733 80-222.592 91.264-18.048 2.475-78.891 4.523-91.435 3.115zM568.32 827.691c109.355-16.512 204.971-78.080 266.24-171.477 12.928-19.755 31.701-57.984 39.765-81.067 14.763-42.368 20.693-78.72 20.693-127.147 0-63.701-10.965-111.829-38.272-168.107-30.080-62.037-75.477-113.792-134.528-153.259-33.664-22.528-87.509-45.056-128.811-53.973-112.725-24.277-231.637 3.797-321.621 75.861-64.555 51.712-112.981 127.573-132.395 207.317-7.936 32.555-10.411 54.272-10.411 92.16 0 63.701 10.965 111.829 38.272 168.107 44.843 92.544 126.165 163.797 223.573 196.011 30.080 9.941 54.272 14.848 93.013 18.859 13.739 1.408 67.029-0.64 84.48-3.285zM547.84 625.792c-75.563-25.301-140.245-47.232-143.744-48.725-8.363-3.669-17.963-13.44-21.675-22.187-1.664-3.883-23.509-68.523-48.512-143.616-29.44-88.405-45.483-139.051-45.483-143.488 0-23.552 19.84-43.349 43.392-43.349 9.515 0 285.867 92.16 294.699 98.219 3.499 2.475 8.363 7.339 10.837 10.837 6.059 8.832 98.219 285.184 98.219 294.699 0 22.955-17.067 40.917-40.619 42.795-9.131 0.725-18.261-2.048-147.115-45.184zM624.213 558.507c-0.427-1.195-12.885-38.613-27.691-83.2s-27.776-81.92-28.843-82.987c-1.92-1.92-166.784-57.344-167.765-56.405-0.64 0.683 53.461 163.328 55.381 166.613 1.152 1.92 162.219 57.429 168.235 57.984 0.811 0.085 1.109-0.853 0.683-2.005z" />
<glyph unicode="&#xe910;" glyph-name="copy" d="M149.291 915.499c-47.787-8.107-86.955-42.88-101.76-90.325l-4.011-12.8v-430.080l4.011-12.8c13.013-41.728 44.8-73.771 86.443-87.125 10.368-3.328 16.683-3.925 47.787-4.608 23.253-0.512 38.315-0.128 42.837 1.109 9.941 2.688 20.181 10.667 25.728 20.139 4.139 7.040 4.821 10.027 4.821 20.992 0 10.837-0.725 13.995-4.608 20.651-4.779 8.149-13.013 15.445-21.291 18.901-2.816 1.195-18.731 2.432-38.101 2.987-32.256 0.939-33.536 1.109-41.131 5.589-4.309 2.517-9.899 7.339-12.416 10.624-10.069 13.184-9.6 2.603-9.6 217.643 0 222.848-0.811 208.939 12.928 222.677s-0.085 12.928 221.739 12.928c220.075 0 207.787 0.683 220.971-12.075 11.563-11.264 12.544-15.061 13.611-52.907l0.939-33.408 5.163-8.405c17.152-27.861 56.149-27.861 73.301 0l5.163 8.405v39.381c0 36.523-0.299 40.32-4.011 52.181-13.013 41.728-44.971 73.899-86.4 86.997l-13.696 4.309-209.92 0.256c-115.456 0.128-213.803-0.427-218.496-1.237zM447.957 616.832c-47.787-8.107-86.955-42.88-101.76-90.325l-4.011-12.8v-430.080l4.011-12.8c13.141-42.112 45.184-74.155 87.296-87.296l12.8-4.011h430.080l12.8 4.011c42.112 13.141 74.155 45.184 87.296 87.296l4.011 12.8v430.080l-4.011 12.8c-13.013 41.728-44.971 73.899-86.4 86.997l-13.696 4.309-209.92 0.256c-115.456 0.128-213.803-0.427-218.496-1.237zM866.56 530.731c11.904-3.541 23.296-14.933 26.837-26.837 2.261-7.595 2.603-34.304 2.603-205.269 0-213.333 0.341-205.525-9.429-218.325-2.603-3.413-8.277-8.32-12.587-10.837l-7.851-4.608h-409.6l-7.851 4.608c-9.088 5.333-16 13.739-19.541 23.723-3.797 10.88-3.712 397.824 0.128 410.709 3.371 11.477 14.976 23.339 26.112 26.752 12.331 3.797 398.421 3.883 411.179 0.085z" />
<glyph unicode="&#xe911;" glyph-name="corner-down-left" d="M840.32 829.568c-9.771-3.072-18.731-10.325-24.192-19.584l-4.608-7.851-0.896-167.253-0.853-167.253-4.309-13.696c-12.843-40.875-44.16-72.32-86.101-86.4l-11.947-4.011-433.493-0.939 72.789 73.003c40.021 40.149 74.197 75.691 75.904 78.976 2.219 4.224 3.157 9.728 3.157 18.773 0.043 10.88-0.64 13.995-4.565 20.651-10.837 18.432-31.317 26.027-51.84 19.243-7.637-2.517-18.859-13.184-120.789-114.773-122.24-121.771-120.533-119.851-120.533-138.453 0-18.56-1.579-16.768 119.68-137.643 61.355-61.141 114.133-112.469 117.291-114.048 19.413-9.771 44.629-1.92 55.979 17.365 4.139 7.040 4.821 9.984 4.779 20.992 0 9.045-0.939 14.549-3.157 18.773-1.707 3.285-35.84 38.784-75.861 78.891l-72.704 72.917 219.264 0.555c203.349 0.469 220.16 0.725 232.021 3.584 65.92 15.659 117.589 55.083 146.475 111.659 9.771 19.157 15.872 36.224 20.224 56.661 2.901 13.483 3.115 26.539 3.115 183.467v168.96l-4.608 7.851c-10.411 17.707-30.805 25.643-50.219 19.584z" />
<glyph unicode="&#xe912;" glyph-name="corner-down-right" d="M157.653 829.568c-9.771-3.072-18.731-10.325-24.192-19.584l-4.608-7.851v-168.96c0-156.928 0.213-169.984 3.115-183.467 18.347-85.675 79.659-147.627 166.699-168.32 11.861-2.859 28.672-3.115 232.021-3.584l219.264-0.555-72.704-72.917c-40.021-40.107-74.155-75.605-75.861-78.891-2.219-4.224-3.157-9.728-3.157-18.773-0.043-11.008 0.64-13.952 4.779-20.992 5.547-9.472 15.744-17.451 25.728-20.181 8.619-2.304 22.613-1.024 30.251 2.816 3.157 1.579 55.936 52.907 117.291 114.048 121.259 120.875 119.68 119.083 119.68 137.643 0 18.603 1.707 16.683-120.533 138.453-101.931 101.589-113.152 112.256-120.789 114.773-20.523 6.784-41.003-0.811-51.84-19.243-3.925-6.656-4.608-9.771-4.565-20.651 0-9.045 0.939-14.549 3.157-18.773 1.707-3.285 35.883-38.827 75.904-78.976l72.789-73.003-433.493 0.939-11.947 4.011c-41.941 14.080-73.259 45.525-86.101 86.4l-4.309 13.696-0.853 167.253-0.896 167.253-4.608 7.851c-10.411 17.707-30.805 25.643-50.219 19.584z" />
<glyph unicode="&#xe913;" glyph-name="corner-left-down" d="M529.067 830.123c-69.931-7.893-133.931-53.163-165.291-116.949-7.637-15.531-14.037-33.579-18.389-51.84-2.859-11.861-3.115-28.672-3.584-232.021l-0.555-219.179-73.771 73.472c-66.048 65.749-74.667 73.771-82.176 76.245-20.48 6.827-41.003-0.768-51.84-19.2-3.925-6.656-4.608-9.771-4.565-20.651 0-9.045 0.939-14.549 3.157-18.773 1.707-3.285 53.163-56.149 114.304-117.504 120.875-121.259 119.083-119.68 137.643-119.68s16.768-1.579 137.643 119.68c61.141 61.355 112.597 114.219 114.304 117.504 2.219 4.224 3.157 9.728 3.157 18.773 0.043 10.88-0.64 13.995-4.565 20.651-10.837 18.432-31.36 26.027-51.84 19.2-7.509-2.475-16.128-10.496-82.261-76.331l-73.856-73.557 0.469 215.851 0.469 215.893 4.309 13.696c12.971 41.088 45.141 73.173 86.101 86.059l13.696 4.309 334.507 1.749 8.192 4.821c32.256 18.944 26.923 66.603-8.619 77.312-6.4 1.92-36.352 2.304-165.803 2.133-86.912-0.128-163.797-0.896-170.837-1.664z" />
<glyph unicode="&#xe914;" glyph-name="corner-left-up" d="M366.080 827.904c-6.784-3.243-31.104-26.752-119.723-115.627-61.141-61.355-112.597-114.219-114.304-117.504-2.219-4.224-3.157-9.728-3.157-18.773-0.043-11.008 0.64-13.952 4.779-20.992 5.547-9.472 15.744-17.451 25.728-20.181 8.661-2.304 22.656-1.024 30.251 2.816 3.157 1.579 38.571 35.584 78.677 75.605l72.917 72.704 0.555-219.264c0.597-241.152-0.085-225.109 10.965-257.621 24.363-71.381 82.389-122.795 159.232-141.013 11.733-2.773 26.923-3.072 179.669-3.584 110.891-0.384 169.045 0 173.397 1.195 9.515 2.56 19.797 10.667 25.259 20.011 4.139 7.040 4.821 10.027 4.821 20.992 0 10.837-0.725 13.995-4.608 20.651-4.736 8.021-12.8 15.275-21.291 19.029-3.712 1.621-43.477 2.347-172.075 2.987l-167.253 0.896-11.947 3.968c-41.856 13.995-73.173 45.44-86.144 86.4l-4.309 13.696-0.939 431.787 73.003-72.789c40.149-40.021 75.691-74.197 78.976-75.904 4.224-2.219 9.728-3.157 18.773-3.157 11.008-0.043 13.952 0.64 20.992 4.779 9.472 5.547 17.451 15.744 20.181 25.728 2.304 8.619 1.024 22.613-2.816 30.251-1.579 3.157-52.907 55.936-114.048 117.291-120.875 121.259-119.083 119.68-137.643 119.68-6.357 0-12.117-1.28-17.92-4.053z" />
<glyph unicode="&#xe915;" glyph-name="corner-right-down" d="M157.653 829.568c-27.477-8.576-38.229-41.941-21.205-65.451 2.773-3.84 8.747-9.131 13.227-11.776l8.192-4.821 334.507-1.749 13.696-4.309c40.96-12.885 73.131-44.971 86.101-86.059l4.309-13.696 0.469-215.893 0.469-215.851-73.856 73.557c-66.133 65.835-74.752 73.856-82.261 76.331-20.48 6.827-41.003-0.768-51.84-19.2-3.925-6.656-4.608-9.771-4.565-20.651 0-9.045 0.939-14.549 3.157-18.773 1.707-3.285 53.163-56.149 114.304-117.504 120.875-121.259 119.083-119.68 137.643-119.68s16.768-1.579 137.643 119.68c61.141 61.355 112.597 114.219 114.304 117.504 2.219 4.224 3.157 9.728 3.157 18.773 0.043 10.88-0.64 13.995-4.565 20.651-10.837 18.432-31.36 26.027-51.84 19.2-7.509-2.475-16.128-10.496-82.176-76.245l-73.771-73.472-0.555 219.179c-0.469 203.349-0.725 220.16-3.584 232.021-13.525 56.917-45.141 103.851-89.813 133.376-32.171 21.291-59.904 31.531-95.915 35.456-25.685 2.816-326.059 2.261-335.232-0.597z" />
<glyph unicode="&#xe916;" glyph-name="corner-right-up" d="M622.080 827.904c-6.784-3.243-31.104-26.752-119.723-115.627-61.141-61.355-112.597-114.219-114.304-117.504-2.219-4.224-3.157-9.728-3.157-18.773-0.043-11.008 0.64-13.952 4.779-20.992 5.547-9.472 15.744-17.451 25.728-20.181 8.661-2.304 22.656-1.024 30.251 2.816 3.157 1.579 38.613 35.627 78.763 75.648l73.003 72.789-0.939-431.787-4.309-13.696c-12.971-40.96-44.288-72.405-86.144-86.4l-11.947-3.968-167.253-0.896c-128.597-0.64-168.363-1.365-172.075-2.987-8.491-3.755-16.555-11.008-21.291-19.029-3.883-6.656-4.608-9.813-4.608-20.651 0-10.965 0.683-13.952 4.821-20.992 5.461-9.344 15.744-17.451 25.259-20.011 4.352-1.195 62.507-1.579 173.397-1.195 152.747 0.512 167.936 0.811 179.669 3.584 65.792 15.573 117.589 55.083 146.475 111.659 9.173 18.005 15.403 34.987 20.139 54.955 2.859 11.861 3.115 28.672 3.584 232.021l0.555 219.264 72.917-72.704c40.107-40.021 75.605-74.155 78.891-75.861 4.224-2.219 9.728-3.157 18.773-3.157 11.008-0.043 13.952 0.64 20.992 4.779 9.472 5.547 17.451 15.744 20.181 25.728 2.304 8.619 1.024 22.613-2.816 30.251-1.579 3.157-52.907 55.936-114.048 117.291-120.875 121.259-119.083 119.68-137.643 119.68-6.357 0-12.117-1.28-17.92-4.053z" />
<glyph unicode="&#xe917;" glyph-name="corner-up-left" d="M368.64 829.099c-6.613-2.261-23.467-18.347-120.064-114.645-122.24-121.771-120.533-119.851-120.533-138.453 0-18.56-1.579-16.768 119.68-137.643 61.355-61.141 114.133-112.469 117.291-114.048 19.413-9.771 44.629-1.92 55.979 17.365 4.139 7.040 4.821 9.984 4.779 20.992 0 9.045-0.939 14.549-3.157 18.773-1.707 3.285-35.883 38.827-75.904 78.976l-72.789 73.003 431.787-0.939 13.696-4.309c41.088-12.971 73.173-45.141 86.059-86.101l4.309-13.696 0.853-167.381 0.896-167.381 5.163-8.405c17.152-27.861 56.149-27.861 73.301 0l5.163 8.405v169.088c0 157.056-0.213 170.112-3.115 183.595-17.493 81.664-77.696 145.365-156.459 165.461-25.429 6.528-40.192 6.912-253.781 6.912h-207.829l72.747 72.96c40.021 40.107 74.197 75.648 75.904 78.933 2.219 4.224 3.157 9.728 3.157 18.773 0.043 10.88-0.64 13.995-4.565 20.651-10.88 18.475-32 26.155-52.565 19.115z" />
<glyph unicode="&#xe918;" glyph-name="corner-up-right" d="M625.92 829.397c-9.472-3.456-17.92-10.581-23.125-19.413-3.925-6.656-4.608-9.771-4.565-20.651 0-9.045 0.939-14.549 3.157-18.773 1.707-3.285 35.883-38.827 75.904-78.933l72.747-72.96h-207.829c-213.589 0-228.352-0.384-253.781-6.912-59.307-15.147-111.019-57.088-137.984-111.915-8.235-16.725-14.464-34.731-18.475-53.547-2.901-13.483-3.115-26.539-3.115-183.595v-169.088l5.163-8.405c17.152-27.861 56.149-27.861 73.301 0l5.163 8.405 0.896 167.381 0.853 167.381 4.309 13.696c12.885 40.96 44.971 73.131 86.059 86.101l13.696 4.309 431.787 0.939-72.789-73.003c-40.021-40.149-74.197-75.691-75.904-78.976-2.219-4.224-3.157-9.728-3.157-18.773-0.043-11.008 0.64-13.952 4.779-20.992 5.547-9.472 15.744-17.451 25.728-20.181 8.619-2.304 22.613-1.024 30.251 2.816 3.157 1.579 55.936 52.907 117.291 114.048 121.259 120.875 119.68 119.083 119.68 137.643 0 18.603 1.707 16.683-120.533 138.453-101.931 101.589-113.152 112.256-120.789 114.773-10.069 3.328-20.011 3.371-28.715 0.171z" />
<glyph unicode="&#xe919;" glyph-name="credit-card" d="M106.624 830.165c-47.701-8.064-86.955-42.88-101.76-90.325l-4.011-12.8v-558.080l4.011-12.8c13.141-42.112 45.184-74.155 87.296-87.296l12.8-4.011h814.080l12.8 4.011c42.112 13.141 74.155 45.184 87.296 87.296l4.011 12.8v558.080l-4.011 12.8c-13.013 41.728-44.971 73.899-86.4 86.997l-13.696 4.309-401.92 0.256c-221.056 0.128-405.803-0.427-410.496-1.237zM909.227 744.064c6.059-1.792 11.136-4.992 16.512-10.325 12.629-12.629 12.928-14.805 12.928-91.477v-66.261h-853.333v66.261c0 76.715 0.299 78.848 12.971 91.477 4.992 5.035 10.581 8.661 15.744 10.24 6.827 2.091 63.445 2.475 397.227 2.56 343.723 0.128 390.229-0.171 397.952-2.475zM938.667 339.029c0-164.523 0.213-160.768-9.429-173.397-2.603-3.413-8.277-8.32-12.587-10.837l-7.851-4.608h-793.6l-7.851 4.608c-4.309 2.517-9.899 7.339-12.416 10.624-9.941 13.056-9.6 6.784-9.6 172.715v152.533h853.333v-151.637z" />
<glyph unicode="&#xe91a;" glyph-name="database" d="M457.387 916.267c-187.477-9.216-327.296-59.008-361.557-128.64-3.883-7.979-7.851-18.645-8.789-23.68-2.347-12.587-2.347-619.307 0-631.893 0.939-5.035 4.864-15.659 8.789-23.595 5.632-11.435 10.112-17.493 21.76-29.184 29.483-29.568 69.547-49.92 135.381-68.821 48.341-13.867 97.323-22.357 166.016-28.672 32-2.987 154.027-2.987 186.027 0 68.693 6.315 117.675 14.805 166.016 28.672 65.749 18.859 105.515 39.083 135.339 68.821 11.691 11.648 16.085 17.493 21.76 29.099 3.925 7.979 7.893 18.645 8.832 23.68 2.347 12.587 2.347 619.307 0 631.893-0.939 5.035-4.907 15.701-8.789 23.68-31.275 63.573-149.419 110.549-315.477 125.483-28.416 2.517-127.147 4.565-155.307 3.157zM570.88 830.251c101.077-5.461 181.632-22.443 239.147-50.347 17.323-8.405 24.747-13.141 32.853-20.821 5.76-5.461 10.453-10.88 10.453-12.032 0-3.072-11.52-15.317-19.84-20.992-40.789-28.075-122.539-50.389-222.507-60.757-40.064-4.139-157.909-4.139-197.973 0-98.389 10.197-176.939 31.275-219.307 58.795-10.581 6.827-23.040 19.285-23.040 22.955 0 1.152 4.693 6.571 10.453 12.032 24.619 23.424 92.331 47.957 165.333 59.904 69.205 11.349 149.163 15.36 224.427 11.264zM207.232 622.976c54.784-21.035 120.149-34.944 202.368-43.051 42.453-4.139 162.347-4.139 204.8 0 66.389 6.528 112.981 15.147 165.547 30.549 20.523 6.016 51.584 17.664 64.555 24.235l8.832 4.48v-192.981l-6.997-7.595c-29.867-32.384-122.453-60.715-235.349-71.979-42.411-4.224-155.563-4.224-197.973 0-42.069 4.181-79.147 10.197-111.403 18.005-62.848 15.275-105.301 33.749-123.947 53.973l-6.997 7.595v192.981l8.832-4.48c4.864-2.432 17.323-7.723 27.733-11.733zM191.488 330.368c58.453-25.045 131.2-41.045 227.499-49.92 32-2.987 154.027-2.987 186.027 0 96.299 8.875 169.045 24.875 227.499 49.92 10.752 4.608 19.84 8.405 20.181 8.405s0.64-43.008 0.64-95.616v-95.616l-6.997-7.595c-29.867-32.384-122.453-60.715-235.349-71.979-42.411-4.224-155.563-4.224-197.973 0-42.069 4.181-79.147 10.197-111.403 18.005-62.848 15.275-105.301 33.749-123.947 53.973l-6.997 7.595v95.616c0 52.608 0.299 95.616 0.64 95.616s9.429-3.797 20.181-8.405z" />
<glyph unicode="&#xe91b;" glyph-name="delete" d="M330.24 830.208c-2.816-0.853-7.68-2.901-10.795-4.565-6.187-3.285-307.968-346.837-314.709-358.272-5.547-9.387-5.547-29.355 0-38.741 2.133-3.627 72.661-85.163 156.715-181.248 129.28-147.755 154.069-175.275 160.811-178.603l7.979-3.925h588.8l12.8 4.011c42.112 13.141 74.155 45.184 87.296 87.296l4.011 12.8v558.080l-4.011 12.8c-13.013 41.728-44.971 73.899-86.4 86.997l-13.696 4.309-291.84 0.299c-169.685 0.171-293.973-0.341-296.96-1.237zM909.227 744.064c11.904-3.541 23.296-14.933 26.837-26.837 2.261-7.637 2.603-41.003 2.603-269.269 0-215.808-0.384-261.888-2.347-268.331-3.115-10.368-10.155-19.2-19.669-24.832l-7.851-4.608-548.011-0.896-129.579 148.053c-71.253 81.451-129.536 149.248-129.536 150.656s58.283 69.205 129.536 150.613l129.536 148.053h269.867c236.629 0 270.976-0.299 278.613-2.603zM497.92 616.064c-9.472-3.456-17.92-10.581-23.125-19.413-3.925-6.656-4.608-9.771-4.565-20.651 0-9.088 0.939-14.549 3.157-18.773 1.749-3.285 26.283-29.227 54.571-57.6l51.371-51.627-51.371-51.627c-28.288-28.416-52.736-54.229-54.315-57.387-9.771-19.371-1.92-44.629 17.365-55.979 7.040-4.139 9.984-4.821 20.992-4.779 9.088 0 14.549 0.939 18.773 3.157 3.285 1.749 29.227 26.283 57.6 54.571l51.627 51.371 51.627-51.371c28.373-28.288 54.229-52.736 57.387-54.315 19.371-9.771 44.629-1.92 55.979 17.365 4.139 7.040 4.821 9.984 4.779 20.992 0 9.088-0.939 14.549-3.157 18.773-1.749 3.285-26.283 29.184-54.571 57.6l-51.371 51.627 51.371 51.627c28.288 28.373 52.821 54.315 54.571 57.6 2.219 4.224 3.157 9.685 3.157 18.773 0.043 10.88-0.64 13.995-4.565 20.651-10.837 18.432-31.36 26.069-51.84 19.2-7.381-2.475-14.72-9.088-60.885-54.955l-52.48-52.139-52.48 52.139c-46.165 45.867-53.504 52.48-60.885 54.955-10.027 3.371-19.968 3.456-28.715 0.213z" />
<glyph unicode="&#xe91c;" glyph-name="download" d="M498.987 872.235c-9.771-3.072-18.731-10.325-24.192-19.584l-4.608-7.851-0.469-210.688-0.427-210.688-73.813 73.472c-66.048 65.792-74.667 73.813-82.176 76.288-20.48 6.827-41.003-0.768-51.84-19.2-3.925-6.656-4.608-9.771-4.565-20.651 0-9.045 0.939-14.549 3.157-18.773 1.707-3.285 53.163-56.149 114.304-117.504 120.875-121.259 119.083-119.68 137.643-119.68s16.768-1.579 137.643 119.68c61.141 61.355 112.597 114.219 114.304 117.504 2.219 4.224 3.157 9.728 3.157 18.773 0.043 10.88-0.64 13.995-4.565 20.651-10.837 18.432-31.36 26.027-51.84 19.2-7.509-2.475-16.128-10.496-82.176-76.288l-73.813-73.472-0.427 210.688-0.469 210.688-4.608 7.851c-10.411 17.707-30.805 25.643-50.219 19.584zM114.987 360.235c-9.771-3.072-18.731-10.325-24.192-19.584l-4.608-7.851v-206.507l4.011-12.8c13.141-42.112 45.184-74.155 87.296-87.296l12.8-4.011h643.413l12.8 4.011c42.112 13.141 74.155 45.184 87.296 87.296l4.011 12.8v206.507l-4.651 7.936c-16.725 28.416-57.6 28.416-74.325 0l-4.651-7.936-0.853-97.28c-0.64-72.576-1.408-98.517-2.987-102.101-3.755-8.491-11.008-16.555-19.029-21.291l-7.851-4.608h-622.933l-7.851 4.608c-8.021 4.736-15.275 12.8-19.029 21.291-1.579 3.584-2.347 29.525-2.987 102.101l-0.853 97.28-4.608 7.851c-10.411 17.707-30.805 25.643-50.219 19.584z" />
<glyph unicode="&#xe91d;" glyph-name="edit" d="M829.867 920.661c-21.717-3.883-41.259-12.928-59.307-27.349-5.632-4.48-103.253-101.333-217.003-215.211-192.811-193.152-206.891-207.616-209.408-215.595-5.931-18.773-45.483-180.395-45.483-185.771 0-13.867 8.875-28.885 21.291-36.181 14.933-8.747 16.299-8.533 115.243 16.213 49.28 12.331 92.672 23.936 96.427 25.728 9.515 4.565 424.405 420.139 433.493 434.176 15.445 23.893 22.4 50.347 20.779 79.403-0.512 9.899-2.219 22.613-3.755 28.245-11.861 43.691-50.261 82.091-93.824 93.824-12.331 3.285-45.995 4.779-58.453 2.517zM874.411 831.957c9.472-4.736 16.555-11.904 21.888-22.144 5.632-10.88 5.632-30.037-0.043-41.131-2.944-5.717-59.392-63.189-205.653-209.323l-201.643-201.387-43.136-10.667c-23.765-5.888-43.648-10.24-44.203-9.685s3.797 20.437 9.685 44.203l10.667 43.136 199.893 200.235c109.952 110.165 202.709 202.069 206.123 204.288s8.789 4.821 11.947 5.76c8.875 2.731 25.6 1.152 34.475-3.285zM149.291 830.165c-47.616-7.979-86.955-42.88-101.76-90.325l-4.011-12.8v-643.413l4.011-12.8c13.141-42.112 45.184-74.155 87.296-87.296l12.8-4.011h643.413l12.8 4.011c42.112 13.141 74.155 45.184 87.296 87.296l4.011 12.8v334.507l-4.651 7.936c-16.725 28.416-57.6 28.416-74.325 0l-4.651-7.936-0.853-161.28c-0.64-123.861-1.365-162.389-2.987-166.101-3.755-8.491-11.008-16.555-19.029-21.291l-7.851-4.608h-622.933l-7.851 4.608c-4.309 2.517-9.899 7.339-12.416 10.624-10.197 13.397-9.6-7.339-9.6 324.309 0 342.016-1.067 315.349 12.928 329.344 13.568 13.568 4.736 12.928 180.651 13.013 125.397 0.043 156.672 0.512 161.835 2.347 9.429 3.371 17.664 10.283 22.997 19.371 4.053 6.869 4.736 9.941 4.736 20.864 0 10.837-0.725 13.995-4.608 20.651-2.517 4.309-7.424 9.984-10.837 12.587-12.715 9.685-8.192 9.429-179.797 9.216-86.912-0.085-161.92-0.853-166.613-1.621z" />
<glyph unicode="&#xe91e;" glyph-name="edit-2" d="M794.069 908.629c-25.984-2.432-51.328-11.435-74.539-26.581-9.387-6.101-79.232-74.923-307.925-303.317-180.864-180.651-297.131-298.027-299.264-302.080-4.565-8.789-69.675-247.467-69.675-255.403 0-22.357 20.224-42.581 42.581-42.581 7.936 0 246.613 65.109 255.403 69.675 4.053 2.133 121.429 118.4 302.080 299.264 308.693 309.12 303.659 303.829 316.416 331.136 14.805 31.616 18.603 73.899 9.685 108.032-20.565 78.635-93.397 129.408-174.763 121.856zM837.291 819.797c42.965-15.787 62.805-65.067 43.221-107.264-4.821-10.411-22.613-28.544-294.101-300.16l-288.981-289.024-74.667-20.395c-41.045-11.221-74.965-20.053-75.349-19.669s8.491 34.389 19.712 75.563l20.437 74.795 288.939 288.853c277.035 276.949 289.408 289.109 300.629 294.315 18.56 8.619 41.685 9.771 60.16 2.987z" />
<glyph unicode="&#xe91f;" glyph-name="edit-3" d="M744.533 877.995c-21.717-3.883-41.259-12.928-59.307-27.349-5.632-4.48-132.096-130.133-281.003-279.211-253.269-253.611-270.891-271.616-273.408-279.595-5.931-18.816-45.483-180.395-45.483-185.771 0-13.867 8.875-28.885 21.291-36.181 14.933-8.747 16.299-8.533 115.243 16.213 49.28 12.331 92.672 23.936 96.427 25.728 9.557 4.608 552.405 548.096 561.493 562.176 15.445 23.893 22.4 50.347 20.779 79.403-0.512 9.899-2.219 22.613-3.755 28.245-11.861 43.691-50.261 82.091-93.824 93.824-12.331 3.285-45.995 4.779-58.453 2.517zM789.077 789.291c9.472-4.736 16.555-11.904 21.888-22.144 5.632-10.88 5.632-30.037-0.043-41.131-2.944-5.76-75.947-79.744-269.653-273.28l-265.643-265.429-43.136-10.667c-23.765-5.888-43.648-10.24-44.203-9.685s3.797 20.437 9.685 44.203l10.667 43.136 263.893 264.235c145.152 145.365 266.709 266.069 270.123 268.288s8.789 4.821 11.947 5.76c8.875 2.731 25.6 1.152 34.475-3.285zM498.987 146.901c-9.771-3.072-18.731-10.325-24.192-19.584-3.883-6.656-4.608-9.813-4.608-20.651 0-10.923 0.683-13.995 4.736-20.864 5.333-9.088 13.568-16 22.997-19.371 9.472-3.371 402.688-3.371 412.16 0 9.429 3.371 17.664 10.283 22.997 19.371 4.053 6.869 4.736 9.941 4.736 20.864 0 10.837-0.725 13.995-4.608 20.651-5.632 9.515-14.464 16.555-24.832 19.669-11.136 3.371-398.677 3.285-409.387-0.085z" />
<glyph unicode="&#xe920;" glyph-name="external-link" d="M626.987 872.235c-9.771-3.072-18.731-10.325-24.192-19.584-3.883-6.656-4.608-9.813-4.608-20.651 0-10.923 0.683-13.995 4.736-20.864 5.333-9.088 13.568-16 22.997-19.371 4.992-1.792 24.064-2.304 86.613-2.347l80.213-0.085-200.789-200.96c-110.421-110.507-202.197-203.648-203.904-206.933-2.219-4.224-3.157-9.728-3.157-18.773-0.043-11.008 0.64-13.952 4.779-20.992 5.547-9.472 15.744-17.451 25.728-20.181 8.619-2.304 22.613-1.024 30.251 2.816 3.157 1.579 96.171 93.184 206.677 203.563l200.875 200.747 0.512-82.859 0.469-82.816 5.163-8.405c17.152-27.861 56.149-27.861 73.301 0l5.163 8.405 0.469 138.368c0.427 125.312 0.213 139.051-2.347 145.792-3.883 10.283-11.904 18.859-22.016 23.552l-8.533 3.968-135.68-0.085c-105.941-0.085-137.216-0.597-142.72-2.304zM191.957 744.832c-47.616-7.979-86.955-42.88-101.76-90.325l-4.011-12.8v-515.413l4.011-12.8c13.141-42.112 45.184-74.155 87.296-87.296l12.8-4.011h515.413l12.8 4.011c42.112 13.141 74.155 45.184 87.296 87.296l4.011 12.8v291.84l-4.651 7.936c-16.725 28.416-57.6 28.416-74.325 0l-4.651-7.936-0.853-139.947c-0.64-106.795-1.365-141.099-2.987-144.768-3.755-8.491-11.008-16.555-19.029-21.291l-7.851-4.608h-494.933l-7.851 4.608c-4.309 2.517-9.899 7.339-12.416 10.624-10.155 13.312-9.6-1.365-9.6 260.309 0 270.507-0.939 251.477 12.928 265.344 13.44 13.44 7.168 12.928 159.317 13.013 107.563 0.043 135.381 0.512 140.501 2.347 9.429 3.371 17.664 10.283 22.997 19.371 4.053 6.869 4.736 9.941 4.736 20.864 0 10.837-0.725 13.995-4.608 20.651-2.517 4.309-7.424 9.984-10.837 12.587-12.587 9.6-10.069 9.429-158.464 9.216-75.179-0.085-140.587-0.853-145.28-1.621z" />
<glyph unicode="&#xe921;" glyph-name="eye" d="M475.307 830.251c-95.872-8.533-186.496-47.957-273.92-119.125-22.955-18.645-76.373-72.192-97.408-97.579-31.36-37.803-60.928-79.488-83.755-118.059-26.496-44.843-26.496-50.133 0-94.976 22.784-38.528 53.803-82.048 85.845-120.619 17.835-21.504 70.784-74.709 91.051-91.52 99.328-82.517 205.269-124.331 314.88-124.331 105.515 0 207.787 38.869 304 115.541 25.6 20.437 80.469 74.368 101.973 100.309 32.256 38.869 63.061 82.219 85.803 120.619 26.496 44.843 26.496 50.133 0 94.976-37.205 62.848-79.573 117.333-132.437 170.197-54.613 54.571-99.115 87.339-159.659 117.461-49.28 24.533-96.427 39.125-146.773 45.397-20.608 2.56-69.461 3.499-89.6 1.707zM543.701 744.875c118.144-11.52 230.571-82.859 329.515-209.195 13.525-17.28 51.328-72.533 56.789-83.029 2.987-5.76 3.243-5.205-19.072-39.211-79.531-121.131-181.077-208.853-282.027-243.627-37.931-13.056-66.219-18.432-104.96-19.925-43.648-1.664-79.019 3.584-123.648 18.389-104.149 34.475-205.995 121.429-287.232 245.163-22.315 33.963-22.059 33.493-19.072 39.168 5.547 10.539 37.12 57.173 51.157 75.605 117.248 153.856 257.92 230.315 398.549 216.661zM484.608 616.064c-48.128-7.509-94.507-38.955-118.997-80.725-53.291-90.88-14.336-206.165 82.901-245.376 87.296-35.157 186.24 7.083 221.525 94.549 16.469 40.875 16.469 86.144 0.043 126.805-22.741 56.277-72.704 95.872-132.267 104.875-19.669 2.944-33.664 2.901-53.205-0.128zM534.315 530.219c31.531-8.235 56.619-36.309 61.611-68.992 4.267-27.861-4.011-53.035-24.064-73.131-17.109-17.195-36.523-25.429-59.861-25.429-21.973 0-41.045 7.595-57.472 22.827-56.747 52.736-19.797 147.627 57.472 147.627 6.101 0 16.128-1.323 22.315-2.901z" />
<glyph unicode="&#xe922;" glyph-name="eye-off" d="M29.653 957.568c-9.771-3.072-18.731-10.325-24.192-19.584-3.925-6.656-4.608-9.771-4.565-20.651 0-9.045 0.939-14.549 3.157-18.773 1.707-3.285 45.355-48.256 96.939-99.968l93.781-93.995-22.784-20.523c-56.619-50.987-114.048-123.264-155.563-195.712-22.357-39.083-22.144-43.989 3.797-87.851 22.784-38.528 53.803-82.048 85.845-120.619 17.835-21.504 70.784-74.709 91.051-91.52 80.171-66.603 161.536-105.259 251.733-119.68 30.123-4.821 87.424-5.077 118.613-0.555 64.896 9.472 124.885 30.336 178.347 62.165l14.507 8.619 98.133-97.877c53.973-53.845 100.821-99.285 104.107-100.992 4.224-2.219 9.728-3.157 18.773-3.157 11.008-0.043 13.952 0.64 20.992 4.779 20.309 11.947 27.605 38.4 15.915 57.984-2.347 3.925-217.6 220.416-478.379 481.067-466.048 465.792-474.325 473.941-483.413 476.587-10.965 3.2-17.237 3.243-26.795 0.256zM481.28 830.976c-32.683-2.944-69.291-9.643-78.635-14.421-24.149-12.288-30.208-45.099-12.032-65.28 11.392-12.629 27.733-17.365 45.44-13.141 43.989 10.539 97.536 10.795 147.328 0.64 116.309-23.68 232.619-113.92 324.267-251.563 28.288-42.453 26.667-35.925 14.123-56.661-13.227-21.973-37.248-56.192-54.912-78.379-16.299-20.48-18.645-24.789-19.84-36.395-1.792-17.237 7.979-33.963 25.088-42.88 8.448-4.437 25.941-4.139 34.987 0.597 17.877 9.344 61.995 68.096 99.115 131.968 23.936 41.131 23.808 45.696-2.432 90.027-37.205 62.848-79.573 117.333-132.437 170.197-54.613 54.571-99.115 87.339-159.659 117.461-49.536 24.661-95.872 38.997-146.773 45.397-15.531 1.963-70.912 3.584-83.627 2.432zM358.699 526.165c-7.253-12.629-16.683-41.856-19.2-59.264-2.347-16.256-1.323-39.253 2.517-57.301 14.165-66.347 65.237-117.419 131.584-131.584 38.187-8.107 76.373-3.072 112.555 14.933l13.568 6.741 98.859-98.859-18.731-9.387c-57.344-28.757-110.208-41.301-172.971-41.045-36.011 0.128-57.301 2.944-87.893 11.691-112.469 32.043-219.904 120.32-305.92 251.349-24.533 37.376-23.339 31.403-10.539 52.437 34.304 56.405 80.981 113.067 129.664 157.483l22.912 20.949 108.885-108.885-5.291-9.259zM482.048 417.365c29.056-29.099 52.48-53.163 52.053-53.547-0.427-0.341-4.352-1.536-8.789-2.603-33.749-8.277-74.112 11.008-91.477 43.691-7.296 13.739-11.221 32.171-9.728 45.653s2.731 19.627 4.053 19.627c0.597 0 24.875-23.765 53.888-52.821z" />
<glyph unicode="&#xe923;" glyph-name="file" d="M234.624 915.499c-47.616-7.979-86.955-42.88-101.76-90.325l-4.011-12.8v-728.747l4.011-12.8c13.141-42.112 45.184-74.155 87.296-87.296l12.8-4.011h558.080l12.8 4.011c41.643 12.971 73.131 44.16 87.296 86.443l4.011 11.947 0.469 250.88c0.469 229.589 0.256 251.52-2.304 258.56-2.389 6.528-26.24 31.147-157.525 162.731-124.373 124.715-156.331 155.861-163.2 159.147l-8.533 4.053-160.427-0.171c-88.235-0.085-164.309-0.853-169.003-1.621zM512.384 697.6l0.469-134.4 4.736-8.064c5.333-9.088 13.568-16 22.997-19.371 5.12-1.835 32.555-2.304 138.24-2.347l131.84-0.085v-215.637c0-177.749-0.427-216.96-2.347-223.403-3.115-10.368-10.155-19.2-19.669-24.832l-7.851-4.608h-537.6l-7.851 4.608c-4.309 2.517-9.899 7.339-12.416 10.624-10.24 13.44-9.6-11.307-9.6 366.976 0 389.717-1.109 357.973 12.971 372.011 13.184 13.184 6.869 12.672 154.667 12.8l130.944 0.128 0.469-134.4zM674.133 694.613l75.947-75.947h-152.747v75.947c0 41.771 0.213 75.947 0.427 75.947 0.256 0 34.603-34.176 76.373-75.947z" />
<glyph unicode="&#xe924;" glyph-name="file-minus" d="M234.624 915.499c-47.616-7.979-86.955-42.88-101.76-90.325l-4.011-12.8v-728.747l4.011-12.8c13.141-42.112 45.184-74.155 87.296-87.296l12.8-4.011h558.080l12.8 4.011c41.643 12.971 73.131 44.16 87.296 86.443l4.011 11.947 0.469 272.213c0.427 249.387 0.256 272.853-2.347 279.893-2.347 6.485-23.339 28.288-136.149 141.397-106.837 107.136-135.040 134.528-141.867 137.813l-8.533 4.053-181.76-0.171c-99.968-0.085-185.643-0.853-190.336-1.621zM554.752 721.493c0.043-87.851 0.512-111.829 2.347-116.907 3.371-9.429 10.283-17.664 19.371-22.997l8.064-4.736 226.133-0.939v-236.928c0-195.797-0.427-238.251-2.347-244.693-3.115-10.368-10.155-19.2-19.669-24.832l-7.851-4.608h-537.6l-7.851 4.608c-4.309 2.517-9.899 7.339-12.416 10.624-10.24 13.44-9.6-11.307-9.6 366.976 0 389.717-1.109 357.973 12.971 372.011 13.269 13.312 4.48 12.672 176.043 12.8l152.32 0.128 0.085-110.507zM695.467 715.947l54.613-54.613h-110.080v54.613c0 30.037 0.213 54.613 0.427 54.613 0.256 0 25.003-24.576 55.040-54.613zM370.987 360.235c-9.771-3.072-18.731-10.325-24.192-19.584-3.883-6.656-4.608-9.813-4.608-20.651 0-10.923 0.683-13.995 4.736-20.864 5.333-9.088 13.568-16 22.997-19.371s274.731-3.371 284.16 0c9.429 3.371 17.664 10.283 22.997 19.371 4.053 6.869 4.736 9.941 4.736 20.864 0 10.837-0.725 13.995-4.608 20.651-5.632 9.515-14.464 16.555-24.832 19.669-11.093 3.328-270.72 3.243-281.387-0.085z" />
<glyph unicode="&#xe925;" glyph-name="file-plus" d="M234.624 915.499c-47.616-7.979-86.955-42.88-101.76-90.325l-4.011-12.8v-728.747l4.011-12.8c13.141-42.112 45.184-74.155 87.296-87.296l12.8-4.011h558.080l12.8 4.011c41.643 12.971 73.131 44.16 87.296 86.443l4.011 11.947 0.469 272.213c0.427 249.387 0.256 272.853-2.347 279.893-2.347 6.485-23.339 28.288-136.149 141.397-106.837 107.136-135.040 134.528-141.867 137.813l-8.533 4.053-181.76-0.171c-99.968-0.085-185.643-0.853-190.336-1.621zM554.752 721.493c0.043-87.851 0.512-111.829 2.347-116.907 3.371-9.429 10.283-17.664 19.371-22.997l8.064-4.736 226.133-0.939v-236.928c0-195.797-0.427-238.251-2.347-244.693-3.115-10.368-10.155-19.2-19.669-24.832l-7.851-4.608h-537.6l-7.851 4.608c-4.309 2.517-9.899 7.339-12.416 10.624-10.24 13.44-9.6-11.307-9.6 366.976 0 389.717-1.109 357.973 12.971 372.011 13.269 13.312 4.48 12.672 176.043 12.8l152.32 0.128 0.085-110.507zM695.467 715.947l54.613-54.613h-110.080v54.613c0 30.037 0.213 54.613 0.427 54.613 0.256 0 25.003-24.576 55.040-54.613zM498.987 488.235c-9.771-3.072-18.731-10.325-24.192-19.584l-4.608-7.851-0.512-49.067-0.555-49.067h-44.843c-48.939 0-55.509-0.939-66.645-9.429-3.413-2.603-8.32-8.277-10.837-12.587-3.883-6.656-4.608-9.813-4.608-20.651 0-10.923 0.683-13.995 4.736-20.864 2.603-4.395 7.381-10.069 10.667-12.544 11.136-8.533 15.232-9.088 65.152-9.173l46.379-0.085 0.555-49.195 0.512-49.237 5.163-8.363c17.152-27.861 56.149-27.861 73.301 0l5.163 8.363 0.512 49.237 0.555 49.195 46.379 0.085c49.92 0.085 54.016 0.64 65.152 9.173 3.285 2.475 8.064 8.149 10.667 12.544 4.053 6.869 4.736 9.941 4.736 20.864 0 10.837-0.725 13.995-4.608 20.651-2.517 4.309-7.424 9.984-10.837 12.587-11.136 8.491-17.707 9.429-66.645 9.429h-44.843l-0.555 49.067-0.512 49.067-4.608 7.851c-10.411 17.707-30.805 25.643-50.219 19.584z" />
<glyph unicode="&#xe926;" glyph-name="file-text" d="M234.624 915.499c-47.616-7.979-86.955-42.88-101.76-90.325l-4.011-12.8v-728.747l4.011-12.8c13.141-42.112 45.184-74.155 87.296-87.296l12.8-4.011h558.080l12.8 4.011c41.643 12.971 73.131 44.16 87.296 86.443l4.011 11.947 0.469 272.213c0.427 249.387 0.256 272.853-2.347 279.893-2.347 6.485-23.339 28.288-136.149 141.397-106.837 107.136-135.040 134.528-141.867 137.813l-8.533 4.053-181.76-0.171c-99.968-0.085-185.643-0.853-190.336-1.621zM554.752 721.493c0.043-87.851 0.512-111.829 2.347-116.907 3.371-9.429 10.283-17.664 19.371-22.997l8.064-4.736 226.133-0.939v-236.928c0-195.797-0.427-238.251-2.347-244.693-3.115-10.368-10.155-19.2-19.669-24.832l-7.851-4.608h-537.6l-7.851 4.608c-4.309 2.517-9.899 7.339-12.416 10.624-10.24 13.44-9.6-11.307-9.6 366.976 0 389.717-1.109 357.973 12.971 372.011 13.269 13.312 4.48 12.672 176.043 12.8l152.32 0.128 0.085-110.507zM695.467 715.947l54.613-54.613h-110.080v54.613c0 30.037 0.213 54.613 0.427 54.613 0.256 0 25.003-24.576 55.040-54.613zM328.32 616.235c-9.771-3.072-18.731-10.325-24.192-19.584-3.883-6.656-4.608-9.813-4.608-20.651 0-10.923 0.683-13.995 4.736-20.864 5.333-9.088 13.568-16 22.997-19.371 9.173-3.285 104.32-3.285 113.493 0 9.429 3.371 17.664 10.283 22.997 19.371 4.053 6.869 4.736 9.941 4.736 20.864 0 10.837-0.725 13.995-4.608 20.651-5.632 9.515-14.464 16.555-24.832 19.669-10.709 3.243-100.395 3.157-110.72-0.085zM328.32 445.568c-9.771-3.072-18.731-10.325-24.192-19.584-3.883-6.656-4.608-9.813-4.608-20.651 0-10.923 0.683-13.995 4.736-20.864 5.333-9.088 13.568-16 22.997-19.371 9.472-3.371 360.021-3.371 369.493 0 9.429 3.371 17.664 10.283 22.997 19.371 4.053 6.869 4.736 9.941 4.736 20.864 0 10.837-0.725 13.995-4.608 20.651-5.632 9.515-14.464 16.555-24.832 19.669-11.136 3.371-356.011 3.243-366.72-0.085zM328.32 274.901c-9.771-3.072-18.731-10.325-24.192-19.584-3.883-6.656-4.608-9.813-4.608-20.651 0-10.923 0.683-13.995 4.736-20.864 5.333-9.088 13.568-16 22.997-19.371 9.472-3.371 360.021-3.371 369.493 0 9.429 3.371 17.664 10.283 22.997 19.371 4.053 6.869 4.736 9.941 4.736 20.864 0 10.837-0.725 13.995-4.608 20.651-5.632 9.515-14.464 16.555-24.832 19.669-11.136 3.371-356.011 3.243-366.72-0.085z" />
<glyph unicode="&#xe927;" glyph-name="filter" d="M72.32 872.235c-22.315-6.997-34.645-31.189-27.221-53.547 2.432-7.296 28.8-39.253 170.837-207.147l167.979-198.528 0.043-134.955c0.043-152.021-0.469-145.451 12.757-158.464 10.411-10.24 184.107-96.597 196.693-97.835 12.331-1.195 24.875 3.371 33.792 12.288 13.568 13.568 12.8 1.536 12.843 201.344l0.043 177.621 167.723 198.229c92.245 109.056 168.704 200.448 169.941 203.093 6.869 15.104 2.987 35.456-9.131 47.531-13.995 14.037 29.269 12.8-456.491 12.672-348.885-0.085-434.133-0.512-439.808-2.304zM829.141 768.597c-181.845-214.613-266.88-315.904-269.909-321.451l-3.712-6.827-0.469-153.173c-0.256-84.267-0.811-153.173-1.28-153.173-0.427 0-19.584 9.387-42.581 20.864l-41.771 20.864-0.469 132.309c-0.469 132.224-0.469 132.309-4.181 139.136-3.029 5.547-86.101 104.491-270.507 322.133l-16.981 20.053h669.44l-17.579-20.736z" />
<glyph unicode="&#xe928;" glyph-name="folder" d="M149.291 872.832c-47.616-7.979-86.955-42.88-101.76-90.325l-4.011-12.8v-643.413l4.011-12.8c13.141-42.112 45.184-74.155 87.296-87.296l12.8-4.011h728.747l12.8 4.011c42.112 13.141 74.155 45.184 87.296 87.296l4.011 12.8v515.413l-4.011 12.8c-13.013 41.728-44.971 73.899-86.4 86.997l-13.696 4.309-384.341 0.939-38.443 57.643c-40.917 61.227-44.16 64.981-59.349 68.437-9.344 2.133-232.235 2.133-244.949 0zM399.701 731.733c22.229-33.28 40.789-59.264 43.904-61.525 12.629-9.259 3.712-8.875 216.789-8.875 222.848 0 208.939 0.811 222.677-12.928 13.867-13.867 12.928 5.077 12.928-264.448 0-197.76-0.427-240.555-2.347-246.997-3.115-10.368-10.155-19.2-19.669-24.832l-7.851-4.608h-708.267l-7.851 4.608c-4.309 2.517-9.899 7.339-12.416 10.624-10.197 13.397-9.6-7.339-9.6 324.309 0 342.059-1.067 315.349 12.971 329.344 12.885 12.928 10.453 12.672 121.984 12.8l98.261 0.128 38.485-57.6z" />
<glyph unicode="&#xe929;" glyph-name="folder-minus" d="M149.291 872.832c-47.616-7.979-86.955-42.88-101.76-90.325l-4.011-12.8v-643.413l4.011-12.8c13.141-42.112 45.184-74.155 87.296-87.296l12.8-4.011h728.747l12.8 4.011c42.112 13.141 74.155 45.184 87.296 87.296l4.011 12.8v515.413l-4.011 12.8c-13.013 41.728-44.971 73.899-86.4 86.997l-13.696 4.309-384.341 0.939-38.443 57.643c-40.917 61.227-44.16 64.981-59.349 68.437-9.344 2.133-232.235 2.133-244.949 0zM399.701 731.733c22.229-33.28 40.789-59.264 43.904-61.525 12.629-9.259 3.712-8.875 216.789-8.875 222.848 0 208.939 0.811 222.677-12.928 13.867-13.867 12.928 5.077 12.928-264.448 0-197.76-0.427-240.555-2.347-246.997-3.115-10.368-10.155-19.2-19.669-24.832l-7.851-4.608h-708.267l-7.851 4.608c-4.309 2.517-9.899 7.339-12.416 10.624-10.197 13.397-9.6-7.339-9.6 324.309 0 342.059-1.067 315.349 12.971 329.344 12.885 12.928 10.453 12.672 121.984 12.8l98.261 0.128 38.485-57.6zM370.987 402.901c-9.771-3.072-18.731-10.325-24.192-19.584-3.883-6.656-4.608-9.813-4.608-20.651 0-10.923 0.683-13.995 4.736-20.864 5.333-9.088 13.568-16 22.997-19.371s274.731-3.371 284.16 0c9.429 3.371 17.664 10.283 22.997 19.371 4.053 6.869 4.736 9.941 4.736 20.864 0 10.837-0.725 13.995-4.608 20.651-5.632 9.515-14.464 16.555-24.832 19.669-11.093 3.328-270.72 3.243-281.387-0.085z" />
<glyph unicode="&#xe92a;" glyph-name="folder-plus" d="M149.291 872.832c-47.616-7.979-86.955-42.88-101.76-90.325l-4.011-12.8v-643.413l4.011-12.8c13.141-42.112 45.184-74.155 87.296-87.296l12.8-4.011h728.747l12.8 4.011c42.112 13.141 74.155 45.184 87.296 87.296l4.011 12.8v515.413l-4.011 12.8c-13.013 41.728-44.971 73.899-86.4 86.997l-13.696 4.309-384.341 0.939-38.443 57.643c-40.917 61.227-44.16 64.981-59.349 68.437-9.344 2.133-232.235 2.133-244.949 0zM399.701 731.733c22.229-33.28 40.789-59.264 43.904-61.525 12.629-9.259 3.712-8.875 216.789-8.875 222.848 0 208.939 0.811 222.677-12.928 13.867-13.867 12.928 5.077 12.928-264.448 0-197.76-0.427-240.555-2.347-246.997-3.115-10.368-10.155-19.2-19.669-24.832l-7.851-4.608h-708.267l-7.851 4.608c-4.309 2.517-9.899 7.339-12.416 10.624-10.197 13.397-9.6-7.339-9.6 324.309 0 342.059-1.067 315.349 12.971 329.344 12.885 12.928 10.453 12.672 121.984 12.8l98.261 0.128 38.485-57.6zM498.987 530.901c-9.771-3.072-18.731-10.325-24.192-19.584l-4.608-7.851-0.512-49.067-0.555-49.067h-44.843c-48.939 0-55.509-0.939-66.645-9.429-3.413-2.603-8.32-8.277-10.837-12.587-3.883-6.656-4.608-9.813-4.608-20.651 0-10.923 0.683-13.995 4.736-20.864 2.603-4.395 7.381-10.069 10.667-12.544 11.136-8.533 15.232-9.088 65.152-9.173l46.379-0.085 0.555-49.195 0.512-49.237 5.163-8.363c17.152-27.861 56.149-27.861 73.301 0l5.163 8.363 0.512 49.237 0.555 49.195 46.379 0.085c49.92 0.085 54.016 0.64 65.152 9.173 3.285 2.475 8.064 8.149 10.667 12.544 4.053 6.869 4.736 9.941 4.736 20.864 0 10.837-0.725 13.995-4.608 20.651-2.517 4.309-7.424 9.984-10.837 12.587-11.136 8.491-17.707 9.429-66.645 9.429h-44.843l-0.555 49.067-0.512 49.067-4.608 7.851c-10.411 17.707-30.805 25.643-50.219 19.584z" />
<glyph unicode="&#xe92b;" glyph-name="globe" d="M481.28 916.352c-3.285-0.384-14.037-1.536-23.893-2.56-80.555-8.533-159.104-40.107-228.693-91.819-25.984-19.328-71.509-64.853-91.051-90.965-106.581-142.805-124.8-327.040-48.171-486.955 23.296-48.555 50.304-86.229 91.349-127.232 41.003-41.045 78.677-68.053 127.232-91.349 159.872-76.629 344.235-58.325 487.125 48.341 25.984 19.371 71.637 65.024 91.008 91.008 126.891 170.027 126.891 396.331 0 566.357-19.371 25.941-64.981 71.552-90.88 90.795-68.053 50.603-139.733 80-222.592 91.264-18.048 2.475-78.891 4.523-91.435 3.115zM411.392 814.507c-56.192-85.547-96.171-195.413-107.605-295.68-1.067-9.387-2.304-19.541-2.773-22.613l-0.811-5.547h-169.259l1.067 10.197c4.864 46.763 28.971 111.957 57.429 155.349 48.341 73.685 118.997 128.427 201.387 156.032 12.672 4.224 23.296 7.723 23.637 7.765 0.341 0-1.067-2.475-3.072-5.504zM652.8 805.163c72.917-28.501 137.387-81.323 181.76-148.949 28.459-43.392 52.565-108.587 57.429-155.349l1.067-10.197h-169.259l-0.811 5.547c-0.427 3.072-2.432 17.835-4.395 32.853-9.813 74.581-32.085 146.731-66.603 215.893-11.435 22.827-29.611 54.912-39.893 70.315l-3.072 4.565 14.208-4.352c7.808-2.389 21.12-7.040 29.568-10.325zM523.435 793.045c34.091-45.995 67.925-112.555 86.912-170.965 11.691-35.883 22.656-86.827 25.515-118.229l1.195-13.184h-250.112l1.195 13.184c6.784 74.923 38.272 169.088 80.384 240.256 17.024 28.8 41.771 64.213 43.904 62.891 0.725-0.469 5.675-6.699 11.008-13.952zM301.013 399.787c0.469-3.072 1.707-13.227 2.773-22.613 11.392-100.181 51.456-210.261 107.563-295.552l3.584-5.461-14.208 4.309c-86.784 26.496-160.725 82.261-211.285 159.317-28.459 43.392-52.565 108.587-57.429 155.349l-1.067 10.197h169.259l0.811-5.547zM635.861 392.149c-3.925-43.307-19.157-105.003-37.632-152.363-19.328-49.451-59.52-120.832-83.413-148.011l-3.328-3.797-10.027 13.696c-36.864 50.304-68.267 111.915-87.851 172.245-11.648 36.053-22.613 86.912-25.472 118.229l-1.195 13.184h250.112l-1.195-13.184zM891.989 395.136c-3.456-33.195-17.408-78.848-35.157-115.243-46.933-96.171-131.712-168.533-233.6-199.424l-14.208-4.309 3.072 4.565c10.112 15.189 28.245 47.147 39.765 70.144 34.603 69.163 56.875 141.355 66.731 216.064 1.963 15.019 3.968 29.781 4.395 32.853l0.811 5.547h169.259l-1.067-10.197z" />
<glyph unicode="&#xe92c;" glyph-name="grid" d="M114.987 872.235c-9.771-3.072-18.731-10.325-24.192-19.584l-4.608-7.851v-324.267l4.736-8.064c5.333-9.088 13.568-16 22.997-19.371s317.397-3.371 326.827 0c9.429 3.371 17.664 10.283 22.997 19.371l4.736 8.064v324.267l-4.608 7.851c-5.632 9.515-14.464 16.555-24.832 19.669-11.093 3.328-313.387 3.243-324.053-0.085zM584.32 872.235c-9.771-3.072-18.731-10.325-24.192-19.584l-4.608-7.851v-324.267l4.736-8.064c5.333-9.088 13.568-16 22.997-19.371s317.397-3.371 326.827 0c9.429 3.371 17.664 10.283 22.997 19.371l4.736 8.064v324.267l-4.608 7.851c-5.632 9.515-14.464 16.555-24.832 19.669-11.093 3.328-313.387 3.243-324.053-0.085zM384 682.667v-106.667h-213.333v213.333h213.333v-106.667zM853.333 682.667v-106.667h-213.333v213.333h213.333v-106.667zM114.987 402.901c-9.771-3.072-18.731-10.325-24.192-19.584l-4.608-7.851v-324.267l4.736-8.064c5.333-9.088 13.568-16 22.997-19.371s317.397-3.371 326.827 0c9.429 3.371 17.664 10.283 22.997 19.371l4.736 8.064v324.267l-4.608 7.851c-5.632 9.515-14.464 16.555-24.832 19.669-11.093 3.328-313.387 3.243-324.053-0.085zM584.32 402.901c-9.771-3.072-18.731-10.325-24.192-19.584l-4.608-7.851v-324.267l4.736-8.064c5.333-9.088 13.568-16 22.997-19.371s317.397-3.371 326.827 0c9.429 3.371 17.664 10.283 22.997 19.371l4.736 8.064v324.267l-4.608 7.851c-5.632 9.515-14.464 16.555-24.832 19.669-11.093 3.328-313.387 3.243-324.053-0.085zM384 213.333v-106.667h-213.333v213.333h213.333v-106.667zM853.333 213.333v-106.667h-213.333v213.333h213.333v-106.667z" />
<glyph unicode="&#xe92d;" glyph-name="help-circle" d="M481.28 916.352c-3.285-0.384-14.037-1.536-23.893-2.56-80.555-8.533-159.104-40.107-228.693-91.819-25.984-19.328-71.509-64.853-91.051-90.965-106.581-142.805-124.8-327.040-48.171-486.955 23.296-48.555 50.304-86.229 91.349-127.232 41.003-41.045 78.677-68.053 127.232-91.349 159.872-76.629 344.235-58.325 487.125 48.341 25.984 19.371 71.637 65.024 91.008 91.008 126.891 170.027 126.891 396.331 0 566.357-19.371 25.941-64.981 71.552-90.88 90.795-68.053 50.603-139.733 80-222.592 91.264-18.048 2.475-78.891 4.523-91.435 3.115zM568.32 827.691c109.355-16.512 204.971-78.080 266.24-171.477 12.928-19.755 31.701-57.984 39.765-81.067 14.763-42.368 20.693-78.72 20.693-127.147 0-63.701-10.965-111.829-38.272-168.107-30.080-62.037-75.477-113.792-134.528-153.259-33.664-22.528-87.509-45.056-128.811-53.973-112.725-24.277-231.637 3.797-321.621 75.861-64.555 51.712-112.981 127.573-132.395 207.317-7.936 32.555-10.411 54.272-10.411 92.16 0 63.701 10.965 111.829 38.272 168.107 44.843 92.544 126.165 163.797 223.573 196.011 30.080 9.941 54.272 14.848 93.013 18.859 13.739 1.408 67.029-0.64 84.48-3.285zM482.133 702.208c-22.357-3.456-48.768-14.165-70.827-28.715-33.835-22.315-65.877-70.315-65.621-98.347 0.299-30.336 31.403-50.219 59.179-37.76 11.947 5.333 16.683 10.837 25.387 29.227 11.947 25.173 32.555 43.051 57.045 49.451 47.701 12.416 97.493-20.395 105.045-69.248 2.304-14.805 1.067-24.363-4.608-35.157-11.435-21.76-46.891-47.872-85.803-63.189-11.861-4.651-18.304-8.363-23.381-13.397-7.552-7.509-12.629-19.456-12.629-29.739 0-22.656 20.181-42.667 42.965-42.667 18.048 0 69.888 25.173 100.907 49.024 49.365 37.973 71.595 80.213 68.949 130.987-2.261 43.136-18.731 79.957-49.749 111.189-22.315 22.485-47.915 37.077-79.061 45.141-15.317 3.968-51.925 5.675-67.797 3.2zM498.987 274.987c-9.856-3.2-18.773-10.453-24.192-19.669-3.883-6.656-4.608-9.813-4.608-20.651 0-10.965 0.683-13.952 4.821-20.992 22.101-37.632 79.573-22.443 79.573 20.992 0 16.085-8.789 30.677-22.827 37.888-8.448 4.352-23.552 5.461-32.768 2.432z" />
<glyph unicode="&#xe92e;" glyph-name="home" d="M497.493 914.603c-4.139-1.493-85.077-63.36-204.715-156.459-182.443-141.952-198.229-154.667-202.24-162.475l-4.352-8.491v-503.552l4.011-12.8c13.141-42.112 45.184-74.155 87.296-87.296l12.8-4.011h643.413l12.8 4.011c42.112 13.141 74.155 45.184 87.296 87.296l4.011 12.8v503.552l-4.352 8.491c-4.011 7.808-19.797 20.523-202.24 162.475-138.069 107.435-200.192 154.752-205.44 156.587-9.259 3.2-19.243 3.157-28.288-0.128zM683.52 687.147l169.813-132.096v-226.475c0-186.965-0.427-227.84-2.347-234.283-3.115-10.368-10.155-19.2-19.669-24.832l-7.851-4.608-140.757-0.981-0.427 198.443-0.469 198.485-4.608 7.851c-2.517 4.309-7.424 9.984-10.837 12.587-12.544 9.557-10.496 9.429-154.368 9.429s-141.824 0.128-154.368-9.429c-3.413-2.603-8.32-8.277-10.837-12.587l-4.608-7.851-0.469-198.485-0.427-198.443-140.757 0.981-7.851 4.608c-4.309 2.517-9.899 7.339-12.416 10.624-10.112 13.269-9.6-0.171-9.6 247.552v227.413l170.24 132.48c93.611 72.832 170.795 132.267 171.52 132.053 0.683-0.213 77.696-59.819 171.093-132.437zM597.333 234.667v-170.667h-170.667v341.333h170.667v-170.667z" />
<glyph unicode="&#xe92f;" glyph-name="image" d="M191.957 872.832c-47.744-8.064-86.955-42.88-101.76-90.325l-4.011-12.8v-643.413l4.011-12.8c13.141-42.112 45.184-74.155 87.296-87.296l12.8-4.011h643.413l12.8 4.011c42.112 13.141 74.155 45.184 87.296 87.296l4.011 12.8v643.413l-4.011 12.8c-13.013 41.728-44.971 73.899-86.4 86.997l-13.696 4.309-316.587 0.256c-174.123 0.128-320.469-0.427-325.163-1.237zM823.893 786.731c11.904-3.541 23.296-14.933 26.837-26.837 2.261-7.552 2.603-30.848 2.603-172.629v-163.883l-73.813 73.515c-66.091 65.792-74.709 73.813-82.219 76.288-10.624 3.541-18.603 3.541-29.269 0.043-7.723-2.56-26.923-21.291-239.232-233.344l-230.784-230.571-6.144 3.285c-3.328 1.792-8.363 6.144-11.093 9.6-10.795 13.611-10.112-8.619-10.112 324.864 0 267.264 0.299 305.152 2.603 312.832 3.371 11.477 14.976 23.339 26.112 26.752 12.416 3.797 611.669 3.925 624.512 0.085zM339.627 701.355c-15.147-3.243-36.395-14.123-48.128-24.619-12.8-11.435-25.301-30.421-30.464-46.208-3.584-10.837-4.181-15.872-4.096-34.048 0.085-18.731 0.683-22.869 4.736-34.133 11.008-30.549 35.285-54.827 66.005-66.005 11.477-4.181 15.104-4.651 34.987-4.651 19.84 0 23.552 0.469 34.987 4.608 30.592 11.093 54.827 35.328 66.005 66.048 4.181 11.477 4.651 15.104 4.651 34.987 0 19.84-0.469 23.552-4.608 34.987-18.389 50.773-71.509 80.299-124.075 69.035zM372.224 616.021c10.795-5.589 14.677-19.029 8.448-29.269-8.533-13.995-27.477-13.995-36.011 0-6.101 10.027-2.944 22.272 7.424 28.587 6.571 4.011 13.269 4.224 20.139 0.683zM768.427 386.987l84.907-84.907v-78.635c0-85.419-0.299-88.491-9.429-100.48-2.603-3.413-8.277-8.32-12.587-10.837l-7.851-4.608-506.88-0.896 182.613 182.656c100.437 100.437 182.997 182.613 183.467 182.613s39.040-38.187 85.76-84.907z" />
<glyph unicode="&#xe930;" glyph-name="info" d="M481.28 916.352c-3.285-0.384-14.037-1.536-23.893-2.56-80.555-8.533-159.104-40.107-228.693-91.819-25.984-19.328-71.509-64.853-91.051-90.965-106.581-142.805-124.8-327.040-48.171-486.955 23.296-48.555 50.304-86.229 91.349-127.232 41.003-41.045 78.677-68.053 127.232-91.349 159.872-76.629 344.235-58.325 487.125 48.341 25.984 19.371 71.637 65.024 91.008 91.008 126.891 170.027 126.891 396.331 0 566.357-19.371 25.941-64.981 71.552-90.88 90.795-68.053 50.603-139.733 80-222.592 91.264-18.048 2.475-78.891 4.523-91.435 3.115zM568.32 827.691c109.355-16.512 204.971-78.080 266.24-171.477 12.928-19.755 31.701-57.984 39.765-81.067 14.763-42.368 20.693-78.72 20.693-127.147 0-63.701-10.965-111.829-38.272-168.107-30.080-62.037-75.477-113.792-134.528-153.259-33.664-22.528-87.509-45.056-128.811-53.973-112.725-24.277-231.637 3.797-321.621 75.861-64.555 51.712-112.981 127.573-132.395 207.317-7.936 32.555-10.411 54.272-10.411 92.16 0 63.701 10.965 111.829 38.272 168.107 44.843 92.544 126.165 163.797 223.573 196.011 30.080 9.941 54.272 14.848 93.013 18.859 13.739 1.408 67.029-0.64 84.48-3.285zM498.987 658.987c-9.856-3.2-18.773-10.453-24.192-19.669-3.883-6.656-4.608-9.813-4.608-20.651 0-10.965 0.683-13.952 4.821-20.992 22.101-37.632 79.573-22.443 79.573 20.992 0 16.085-8.789 30.677-22.827 37.888-8.448 4.352-23.552 5.461-32.768 2.432zM498.987 488.235c-9.771-3.072-18.731-10.325-24.192-19.584l-4.608-7.851v-196.523l5.163-8.405c2.901-4.693 8.747-10.795 13.269-13.867 20.096-13.483 47.019-7.296 60.032 13.867l5.163 8.405v196.523l-4.608 7.851c-10.411 17.707-30.805 25.643-50.219 19.584z" />
<glyph unicode="&#xe931;" glyph-name="italic" d="M413.653 829.568c-27.477-8.576-38.229-41.941-21.205-65.451 2.773-3.84 8.747-9.131 13.227-11.776l8.192-4.821 164.181-1.707-223.701-596.48h-72.789c-79.061 0-82.688-0.341-94.592-9.429-3.413-2.603-8.32-8.277-10.837-12.587-3.883-6.656-4.608-9.813-4.608-20.651 0-10.923 0.683-13.995 4.736-20.864 5.333-9.088 13.568-16 22.997-19.371 5.205-1.877 43.605-2.261 206.080-2.261s200.875 0.384 206.080 2.261c9.429 3.371 17.664 10.283 22.997 19.371 4.053 6.869 4.736 9.941 4.736 20.864 0 10.837-0.725 13.995-4.608 20.651-4.736 8.021-12.8 15.275-21.291 19.029-3.541 1.579-26.325 2.347-86.059 2.987l-81.237 0.853 223.701 596.48 74.325 0.085c80 0.085 81.365 0.213 93.099 9.173 3.285 2.475 8.064 8.149 10.667 12.544 4.053 6.869 4.736 9.941 4.736 20.864 0 10.837-0.725 13.995-4.608 20.651-5.632 9.515-14.464 16.555-24.832 19.669-11.136 3.371-398.677 3.285-409.387-0.085z" />
<glyph unicode="&#xe932;" glyph-name="layers" d="M499.2 915.029c-3.755-1.28-103.979-50.901-222.72-110.251-174.635-87.381-217.088-109.227-222.080-114.475-15.659-16.384-15.232-42.795 0.981-58.709 5.76-5.632 48.171-27.477 225.92-116.181l218.837-109.227h23.723l218.837 109.227c177.749 88.704 220.16 110.549 225.92 116.181 16.64 16.341 16.64 43.136 0 59.477-5.76 5.675-48 27.349-225.451 115.883-237.525 118.485-226.901 113.792-243.968 108.075zM676.693 744.533c90.581-45.269 164.693-82.731 164.693-83.2s-74.112-37.931-164.693-83.2l-164.693-82.347-164.693 82.347c-90.581 45.269-164.693 82.731-164.693 83.2 0 0.64 326.656 164.949 328.96 165.461 0.213 0.043 74.539-36.949 165.12-82.261zM70.101 487.851c-15.147-5.589-27.435-23.424-27.435-39.851 0-10.368 5.077-22.229 12.715-29.739 5.76-5.632 48.171-27.477 225.92-116.181l218.837-109.227h23.723l218.837 109.227c177.749 88.704 220.16 110.549 225.92 116.181 7.637 7.509 12.715 19.371 12.715 29.739 0 24.448-22.571 44.8-46.72 42.112-7.125-0.768-46.763-19.925-215.68-104.277l-206.933-103.381-206.933 103.424c-193.792 96.811-207.573 103.424-217.173 104.064-6.699 0.427-12.843-0.299-17.792-2.091zM70.101 274.517c-15.147-5.589-27.435-23.424-27.435-39.851 0-10.368 5.077-22.229 12.715-29.739 5.76-5.632 48.171-27.477 225.92-116.181l218.837-109.227h23.723l218.837 109.227c177.749 88.704 220.16 110.549 225.92 116.181 7.637 7.509 12.715 19.371 12.715 29.739 0 24.448-22.571 44.8-46.72 42.112-7.125-0.768-46.763-19.925-215.68-104.277l-206.933-103.381-206.933 103.424c-193.792 96.811-207.573 103.424-217.173 104.064-6.699 0.427-12.843-0.299-17.792-2.091z" />
<glyph unicode="&#xe933;" glyph-name="layout" d="M191.957 872.832c-47.744-8.064-86.955-42.88-101.76-90.325l-4.011-12.8v-643.413l4.011-12.8c13.141-42.112 45.184-74.155 87.296-87.296l12.8-4.011h643.413l12.8 4.011c42.112 13.141 74.155 45.184 87.296 87.296l4.011 12.8v643.413l-4.011 12.8c-13.013 41.728-44.971 73.899-86.4 86.997l-13.696 4.309-316.587 0.256c-174.123 0.128-320.469-0.427-325.163-1.237zM823.893 786.731c6.059-1.792 11.136-4.992 16.512-10.325 12.629-12.629 12.928-14.805 12.928-91.477v-66.261h-682.667v66.261c0 76.715 0.299 78.848 12.971 91.477 4.992 5.035 10.581 8.661 15.744 10.24 12.416 3.797 611.669 3.925 624.512 0.085zM341.333 319.915v-213.376l-140.8 0.981-7.851 4.608c-4.309 2.517-9.899 7.339-12.416 10.624-10.069 13.184-9.6 2.816-9.6 215.381v195.2h170.667v-213.419zM853.333 339.029c0-210.901 0.341-203.264-9.429-216.064-2.603-3.413-8.277-8.32-12.587-10.837l-7.851-4.608-396.8-0.896v426.709h426.667v-194.304z" />
<glyph unicode="&#xe934;" glyph-name="life-buoy" d="M481.28 916.352c-3.285-0.384-14.037-1.536-23.893-2.56-125.184-13.269-244.821-82.389-322.091-186.112-154.453-207.317-110.976-501.419 97.024-656.384 207.147-154.325 501.461-110.933 656.171 96.725 123.563 165.845 123.563 394.112 0 559.957-75.947 101.931-188.459 167.936-315.776 185.259-18.048 2.475-78.891 4.523-91.435 3.115zM568.32 827.691c40.235-6.101 74.027-16.64 111.872-34.944 22.613-10.923 61.269-34.987 67.712-42.112 2.816-3.115 0.725-5.461-57.6-63.744l-60.501-60.459-16.64 8.789c-29.099 15.317-48.768 21.291-81.109 24.576-15.488 1.579-24.619 1.579-40.107 0-32.171-3.243-51.669-9.131-81.152-24.533l-16.725-8.704-60.459 60.416c-58.24 58.197-60.331 60.544-57.515 63.659 6.4 7.083 45.013 31.147 67.712 42.197 44.16 21.504 83.968 32.341 140.032 38.144 13.739 1.408 67.029-0.64 84.48-3.285zM330.411 560.213c-21.931-37.632-30.891-70.187-30.891-112.213s8.96-74.624 30.891-112.171l3.243-5.547-60.501-60.544c-58.325-58.368-60.672-60.459-63.787-57.643-7.125 6.443-31.189 45.099-42.112 67.712-27.349 56.533-38.272 104.491-38.272 168.192 0 48.427 5.931 84.779 20.693 127.147 11.819 33.835 37.333 81.152 56.448 104.704l6.016 7.424 121.515-121.557-3.243-5.504zM831.531 660.565c23.467-35.115 43.221-79.915 53.077-120.405 7.936-32.555 10.411-54.272 10.411-92.16 0-63.701-10.923-111.659-38.272-168.192-10.923-22.613-34.987-61.269-42.112-67.712-3.115-2.816-5.461-0.725-63.659 57.515l-60.416 60.416 9.515 18.475c18.304 35.456 24.405 60.373 24.405 99.499s-6.101 64.043-24.405 99.499l-9.515 18.475 60.416 60.416c58.197 58.24 60.544 60.331 63.659 57.515 1.792-1.621 9.387-12.117 16.896-23.339zM548.736 570.496c20.864-6.101 35.285-14.976 53.035-32.725 17.579-17.621 26.453-31.872 32.896-53.035 3.541-11.648 4.181-17.195 4.181-36.736 0-26.752-3.627-41.856-14.933-62.336-9.173-16.555-35.243-42.24-51.328-50.603-21.461-11.179-34.389-14.165-60.587-14.165s-39.125 2.987-60.587 14.165c-16.085 8.363-42.155 34.048-51.328 50.603-11.307 20.48-14.933 35.584-14.933 62.336 0 19.541 0.64 25.088 4.181 36.736 6.443 21.163 15.317 35.413 32.896 53.035 21.205 21.205 40.363 31.445 68.395 36.523 14.208 2.56 42.709 0.725 58.112-3.797zM413.141 259.584c34.603-17.92 59.904-24.064 98.859-24.064 39.125 0 64.043 6.101 99.499 24.405l18.475 9.515 60.459-60.459c33.28-33.28 60.501-60.885 60.459-61.355s-5.973-5.12-13.227-10.368c-125.013-90.283-291.627-97.451-423.595-18.261-11.307 6.784-35.413 23.339-40.917 28.075-0.853 0.768 119.595 121.728 121.216 121.728 0.555 0 9.003-4.139 18.773-9.216z" />
<glyph unicode="&#xe935;" glyph-name="link" d="M684.373 911.403c-41.557-6.955-80.768-23.125-112.085-46.293-14.421-10.667-98.901-91.819-105.344-101.205-6.144-8.875-7.851-14.507-7.808-25.472 0.085-23.424 18.645-41.6 42.496-41.6 5.291 0 12.629 1.237 16.256 2.773 4.395 1.835 21.163 17.109 50.261 45.867 24.021 23.765 48.683 46.72 54.784 51.029 30.635 21.717 63.488 32.128 101.333 32.043 71.936-0.085 136.576-46.677 159.915-115.243 7.168-21.035 8.96-35.456 7.936-63.061-0.725-19.029-1.835-27.008-5.419-39.168-5.419-18.261-16.597-40.405-28.117-55.552-4.608-6.101-41.301-43.819-81.493-83.797-77.312-76.885-84.693-83.157-111.445-94.763-24.533-10.624-36.949-13.099-66.603-13.269-29.227-0.171-41.003 1.835-64.427 11.051-25.984 10.197-49.664 27.435-68.267 49.621-13.312 15.915-21.589 21.376-34.603 22.912-31.061 3.627-55.168-25.6-45.355-55.040 5.76-17.451 43.008-55.339 73.131-74.496 76.757-48.768 171.179-53.589 252.843-12.885 34.517 17.195 43.307 24.704 128.341 109.739 55.723 55.723 81.664 82.859 88.96 93.141 28.245 39.851 44.331 83.541 48.043 130.688 3.541 44.757-3.968 86.571-22.997 128.341-32.256 70.784-101.163 125.312-179.541 142.123-21.845 4.693-69.717 6.016-90.795 2.517zM390.827 616.021c-52.096-7.296-97.621-29.099-138.624-66.347-35.115-31.872-147.115-146.475-157.781-161.408-65.963-92.416-65.323-214.144 1.536-303.787 24.832-33.28 62.293-63.275 100.011-80.128 33.408-14.891 58.624-20.565 96.725-21.717 42.624-1.28 72.405 4.139 109.355 19.925 36.779 15.659 52.992 28.075 108.885 83.456 49.877 49.408 53.931 54.741 53.931 70.997 0 15.787-11.477 33.152-25.941 39.168-8.107 3.371-25.216 3.413-33.323 0-4.011-1.664-22.016-18.176-49.877-45.739-23.936-23.723-48.128-46.507-53.717-50.603-13.824-10.112-36.139-21.035-54.699-26.667-14.336-4.395-17.451-4.693-46.080-4.693-28.544 0-31.787 0.341-46.080 4.651-55.339 16.768-97.707 57.173-115.797 110.421-6.571 19.328-8.491 35.157-7.467 62.208 1.28 34.603 9.387 59.349 29.013 88.747 7.552 11.307 144.555 150.059 160.128 162.176 19.797 15.403 43.435 26.752 68.096 32.683 9.429 2.261 19.328 3.029 37.547 2.987 31.189-0.085 47.701-3.84 74.453-16.896 22.955-11.221 40.789-25.003 56.405-43.648 13.44-16.085 22.315-21.973 35.029-23.253 31.019-3.2 54.784 25.941 45.056 55.211-5.973 18.048-44.416 56.789-74.795 75.392-53.333 32.597-112.341 45.269-171.989 36.864z" />
<glyph unicode="&#xe936;" glyph-name="list" d="M114.987 744.32c-9.856-3.2-18.773-10.453-24.192-19.669-3.883-6.656-4.608-9.813-4.608-20.651 0-10.965 0.683-13.952 4.821-20.992 22.101-37.632 79.573-22.443 79.573 20.992 0 16.085-8.789 30.677-22.827 37.888-8.448 4.352-23.552 5.461-32.768 2.432zM328.32 744.235c-9.771-3.072-18.731-10.325-24.192-19.584-3.883-6.656-4.608-9.813-4.608-20.651 0-10.923 0.683-13.995 4.736-20.864 5.333-9.088 13.568-16 22.997-19.371 9.515-3.371 573.312-3.371 582.827 0 9.429 3.371 17.664 10.283 22.997 19.371 4.053 6.869 4.736 9.941 4.736 20.864 0 10.837-0.725 13.995-4.608 20.651-5.632 9.515-14.464 16.555-24.832 19.669-11.179 3.371-569.301 3.285-580.053-0.085zM114.987 488.32c-9.856-3.2-18.773-10.453-24.192-19.669-3.883-6.656-4.608-9.813-4.608-20.651 0-10.965 0.683-13.952 4.821-20.992 22.101-37.632 79.573-22.443 79.573 20.992 0 16.085-8.789 30.677-22.827 37.888-8.448 4.352-23.552 5.461-32.768 2.432zM328.32 488.235c-9.771-3.072-18.731-10.325-24.192-19.584-3.883-6.656-4.608-9.813-4.608-20.651 0-10.923 0.683-13.995 4.736-20.864 5.333-9.088 13.568-16 22.997-19.371 5.248-1.877 57.643-2.261 291.413-2.261s286.165 0.384 291.413 2.261c9.429 3.371 17.664 10.283 22.997 19.371 4.053 6.869 4.736 9.941 4.736 20.864 0 10.837-0.725 13.995-4.608 20.651-5.632 9.515-14.464 16.555-24.832 19.669-11.179 3.371-569.301 3.285-580.053-0.085zM114.987 232.32c-9.856-3.2-18.773-10.453-24.192-19.669-3.883-6.656-4.608-9.813-4.608-20.651 0-10.965 0.683-13.952 4.821-20.992 22.101-37.632 79.573-22.443 79.573 20.992 0 16.085-8.789 30.677-22.827 37.888-8.448 4.352-23.552 5.461-32.768 2.432zM328.32 232.235c-9.771-3.072-18.731-10.325-24.192-19.584-3.883-6.656-4.608-9.813-4.608-20.651 0-10.923 0.683-13.995 4.736-20.864 5.333-9.088 13.568-16 22.997-19.371 5.248-1.877 57.643-2.261 291.413-2.261s286.165 0.384 291.413 2.261c9.429 3.371 17.664 10.283 22.997 19.371 4.053 6.869 4.736 9.941 4.736 20.864 0 10.837-0.725 13.995-4.608 20.651-5.632 9.515-14.464 16.555-24.832 19.669-11.179 3.371-569.301 3.285-580.053-0.085z" />
<glyph unicode="&#xe937;" glyph-name="lock" d="M485.547 915.499c-110.421-10.88-199.765-91.989-224.597-203.819-3.541-16-3.84-22.187-4.48-97.493l-0.725-80.469-32.725-0.811c-28.16-0.725-34.645-1.408-46.421-4.949-40.875-12.331-73.344-44.928-86.4-86.784l-4.011-12.8v-344.747l4.011-12.8c13.141-42.112 45.184-74.155 87.296-87.296l12.8-4.011h643.413l12.8 4.011c42.112 13.141 74.155 45.184 87.296 87.296l4.011 12.8v344.747l-4.011 12.8c-13.056 41.856-45.525 74.453-86.4 86.784-11.776 3.541-18.261 4.224-46.421 4.949l-32.725 0.811-0.725 80.469c-0.64 75.307-0.939 81.493-4.48 97.493-11.435 51.499-33.408 92.459-68.907 128.64-55.083 56.107-129.664 82.987-208.597 75.179zM537.813 829.525c53.333-8.064 100.651-41.984 125.056-89.685 17.877-34.987 19.755-48.085 19.797-137.813v-68.693h-341.333v68.693c0.043 89.728 1.92 102.827 19.797 137.813 24.064 46.976 71.595 81.451 123.477 89.557 19.541 3.029 33.536 3.072 53.205 0.128zM823.893 445.397c11.904-3.541 23.296-14.933 26.837-26.837 2.261-7.509 2.603-29.824 2.603-162.603 0-166.997 0.213-162.987-9.429-175.659-2.603-3.413-8.277-8.32-12.587-10.837l-7.851-4.608h-622.933l-7.851 4.608c-9.088 5.333-16 13.739-19.541 23.723-3.797 10.837-3.712 312.533 0.128 325.376 3.371 11.477 14.976 23.339 26.112 26.752 12.416 3.797 611.669 3.925 624.512 0.085z" />
<glyph unicode="&#xe938;" glyph-name="log-in" d="M626.987 872.277c-9.813-3.115-18.773-10.411-24.192-19.627-3.883-6.656-4.608-9.813-4.608-20.651 0-10.923 0.683-13.995 4.736-20.864 5.333-9.088 13.568-16 22.997-19.371 5.035-1.792 25.941-2.304 97.835-2.347 104.619-0.085 103.595 0 116.651-13.013 13.952-13.995 12.928 12.544 12.928-328.448 0-251.989-0.384-304.512-2.347-310.997-3.115-10.368-10.155-19.2-19.669-24.832l-7.851-4.608-97.28-0.853c-72.576-0.64-98.517-1.408-102.101-2.987-8.491-3.755-16.555-11.008-21.291-19.029-3.883-6.656-4.608-9.813-4.608-20.651 0-10.965 0.683-13.952 4.821-20.992 5.504-9.344 15.744-17.451 25.387-20.053 4.395-1.195 40.576-1.621 106.837-1.237 99.541 0.555 100.267 0.555 112.128 4.523 42.112 13.995 73.429 45.611 86.443 87.253l4.011 12.8v643.413l-4.011 12.8c-13.013 41.771-45.099 74.027-86.4 86.955l-13.696 4.267-99.84 0.384c-78.891 0.341-101.333-0.043-106.88-1.835zM413.653 701.568c-9.771-3.072-18.731-10.325-24.192-19.584-3.925-6.656-4.608-9.771-4.565-20.651 0-9.045 0.939-14.549 3.157-18.773 1.707-3.285 35.883-38.827 75.904-78.933l72.747-72.96h-206.635c-170.155 0-208-0.427-214.443-2.347-10.368-3.115-19.2-10.155-24.832-19.669-3.883-6.656-4.608-9.813-4.608-20.651 0-10.923 0.683-13.995 4.736-20.864 5.333-9.088 13.568-16 22.997-19.371 5.205-1.877 45.141-2.304 214.571-2.347l208.213-0.085-72.747-72.96c-40.021-40.107-74.197-75.648-75.904-78.933-2.219-4.224-3.157-9.728-3.157-18.773-0.043-11.008 0.64-13.952 4.779-20.992 5.547-9.472 15.744-17.451 25.728-20.181 8.619-2.304 22.613-1.024 30.251 2.816 3.157 1.579 55.936 52.907 117.291 114.048 121.259 120.875 119.68 119.083 119.68 137.643 0 18.603 1.707 16.683-120.533 138.496-108.629 108.331-112.683 112.171-121.643 114.773-10.965 3.243-17.237 3.285-26.795 0.299z" />
<glyph unicode="&#xe939;" glyph-name="log-out" d="M191.957 872.832c-47.616-7.979-86.955-42.88-101.76-90.325l-4.011-12.8v-643.413l4.011-12.8c13.013-41.643 44.331-73.259 86.443-87.253 11.861-3.968 12.587-3.968 112.128-4.523 66.261-0.384 102.443 0.043 106.837 1.237 9.643 2.603 19.883 10.709 25.387 20.053 4.139 7.040 4.821 10.027 4.821 20.992 0 10.837-0.725 13.995-4.608 20.651-4.736 8.021-12.8 15.275-21.291 19.029-3.584 1.579-29.525 2.347-102.101 2.987l-97.28 0.853-7.851 4.608c-4.309 2.517-9.899 7.339-12.416 10.624-10.197 13.397-9.6-7.339-9.6 324.309 0 342.016-1.067 315.349 12.928 329.344 13.056 13.013 12.032 12.928 116.651 13.013 71.893 0.043 92.8 0.555 97.835 2.347 9.429 3.371 17.664 10.283 22.997 19.371 4.053 6.869 4.736 9.941 4.736 20.864 0 10.837-0.725 13.995-4.608 20.651-2.517 4.309-7.424 9.984-10.837 12.587-12.245 9.344-13.696 9.429-115.797 9.216-51.712-0.085-97.92-0.853-102.613-1.621zM669.653 701.568c-9.771-3.072-18.731-10.325-24.192-19.584-3.925-6.656-4.608-9.771-4.565-20.651 0-9.045 0.939-14.549 3.157-18.773 1.707-3.285 35.883-38.827 75.904-78.933l72.747-72.96h-206.635c-170.155 0-208-0.427-214.443-2.347-10.368-3.115-19.2-10.155-24.832-19.669-3.883-6.656-4.608-9.813-4.608-20.651 0-10.923 0.683-13.995 4.736-20.864 5.333-9.088 13.568-16 22.997-19.371 5.205-1.877 45.141-2.304 214.571-2.347l208.213-0.085-72.747-72.96c-40.021-40.107-74.197-75.648-75.904-78.933-2.219-4.224-3.157-9.728-3.157-18.773-0.043-11.008 0.64-13.952 4.779-20.992 5.547-9.472 15.744-17.451 25.728-20.181 8.619-2.304 22.613-1.024 30.251 2.816 3.157 1.579 55.936 52.907 117.291 114.048 121.259 120.875 119.68 119.083 119.68 137.643 0 18.603 1.707 16.683-120.533 138.496-108.629 108.331-112.683 112.171-121.643 114.773-10.965 3.243-17.237 3.285-26.795 0.299z" />
<glyph unicode="&#xe93a;" glyph-name="mail" d="M149.291 830.165c-27.349-4.608-47.104-15.147-68.395-36.395-17.067-17.067-25.6-30.592-32.896-51.925l-4.48-13.099v-561.493l4.48-13.099c7.296-21.333 15.829-34.859 32.896-51.925s30.592-25.6 51.925-32.896l13.099-4.48h732.16l13.099 4.48c21.333 7.296 34.859 15.829 51.925 32.896s25.6 30.592 32.896 51.925l4.48 13.099v561.493l-4.48 13.099c-7.296 21.333-15.829 34.859-32.896 51.925-17.493 17.493-31.616 26.283-53.035 33.067l-13.696 4.309-359.253 0.256c-197.589 0.128-363.136-0.427-367.829-1.237zM864.384 744.747c8.917-2.432 19.755-10.069 23.467-16.427 2.816-4.821 2.816-5.205 0-7.595-9.429-8.064-373.675-261.504-375.851-261.504s-366.421 253.44-375.851 261.504c-2.816 2.389-2.816 2.773 0 7.595 3.541 6.059 14.592 14.037 22.699 16.341 8.661 2.517 696.576 2.603 705.536 0.085zM499.669 364.459c8.448-2.347 16.384-2.261 24.917 0.299 4.395 1.323 75.264 49.877 189.269 129.664l182.187 127.531-0.427-220.544c-0.469-215.168-0.555-220.672-3.797-227.243-1.877-3.712-6.315-9.6-9.899-13.099-13.056-12.672 17.024-11.733-369.92-11.733s-356.864-0.939-369.92 11.733c-3.584 3.499-8.021 9.387-9.899 13.099-3.243 6.571-3.328 12.075-3.797 227.243l-0.427 220.544 182.656-127.872c108.587-75.989 185.259-128.597 189.056-129.621z" />
<glyph unicode="&#xe93b;" glyph-name="map" d="M329.387 916.139c-1.408-0.512-72.064-40.576-156.971-89.045-104.491-59.648-156.459-90.197-160.725-94.549-12.629-13.013-11.691 17.109-11.605-370.603 0.085-376.533-0.469-354.389 9.173-367.019 10.027-13.141 30.208-19.413 45.611-14.165 4.096 1.408 69.632 38.101 145.664 81.536 76.032 43.477 139.477 79.36 140.971 79.744s76.715-36.267 167.168-81.493l164.523-82.219 22.613 1.28 154.965 88.533c108.16 61.824 156.928 90.581 161.451 95.232 12.8 13.184 11.861-17.323 11.349 373.419l-0.427 350.677-4.651 7.936c-9.387 15.915-28.459 24.533-45.696 20.565-5.717-1.323-52.437-27.136-146.261-80.811-75.861-43.349-139.819-79.531-142.165-80.469-3.755-1.408-24.747 8.619-168.576 80.512-161.067 80.512-164.48 82.133-174.080 82.005-5.376-0.085-10.923-0.555-12.331-1.067zM512.853 741.12l127.147-63.573v-293.12c0-161.195-0.384-293.12-0.853-293.12s-58.069 28.587-128 63.573l-127.147 63.573v293.12c0 161.195 0.384 293.12 0.853 293.12s58.069-28.587 128-63.573zM298.667 508.928v-292.309l-102.827-58.709c-56.576-32.256-104.576-59.776-106.667-61.141l-3.84-2.432v292.437l0.043 292.48 106.197 60.843c58.453 33.493 106.453 60.928 106.667 61.013s0.427-131.371 0.427-292.181zM938.667 508.928v-292.309l-102.827-58.709c-56.533-32.256-104.533-59.776-106.667-61.141l-3.84-2.432v292.437l0.043 292.48 106.197 60.843c58.453 33.493 106.411 60.928 106.667 61.013s0.427-131.371 0.427-292.181z" />
<glyph unicode="&#xe93c;" glyph-name="map-pin" d="M472.747 958.080c-79.957-7.040-158.677-38.485-225.28-89.984-21.205-16.384-58.496-54.528-75.392-77.056-59.733-79.787-89.643-173.568-86.229-270.251 2.005-57.472 15.36-113.067 41.6-173.355 49.28-113.28 149.205-235.136 283.008-345.131 42.923-35.285 76.8-59.819 88.107-63.829 13.696-4.821 26.88-2.304 42.027 8.021 48.128 32.64 118.443 92.203 171.136 144.811 129.067 128.939 203.221 256.939 222.933 384.853 4.352 28.117 4.352 88.917 0 116.907-11.947 77.141-40.405 143.403-87.851 204.8-14.379 18.56-51.541 55.723-70.272 70.229-88.192 68.224-194.304 99.669-303.787 89.984zM543.317 872.917c78.507-7.467 149.077-39.893 205.653-94.507 28.928-27.904 51.456-58.88 69.547-95.744 41.387-84.224 45.525-180.907 11.648-271.659-24.789-66.432-65.536-132.352-124.416-201.344-33.92-39.765-96.213-100.139-143.872-139.477-19.925-16.469-48.555-38.613-49.877-38.613-1.451 0-30.421 22.4-49.493 38.229-49.408 41.045-110.507 100.224-144.299 139.819-76.373 89.429-124.416 177.92-140.715 259.328-19.84 98.987 7.211 204.885 72.021 281.984 33.024 39.253 67.925 66.688 113.152 88.917 56.021 27.477 118.528 38.955 180.651 33.067zM484.608 701.397c-48.128-7.509-94.507-38.955-118.997-80.725-53.291-90.88-14.336-206.165 82.901-245.376 87.296-35.157 186.24 7.083 221.525 94.549 16.469 40.875 16.469 86.144 0.043 126.805-22.741 56.277-72.704 95.872-132.267 104.875-19.669 2.944-33.664 2.901-53.205-0.128zM534.315 615.552c31.531-8.235 56.619-36.309 61.611-68.992 4.267-27.861-4.011-53.035-24.064-73.131-17.109-17.195-36.523-25.429-59.861-25.429-21.973 0-41.045 7.595-57.472 22.827-56.747 52.736-19.797 147.627 57.472 147.627 6.101 0 16.128-1.323 22.315-2.901z" />
<glyph unicode="&#xe93d;" glyph-name="maximize" d="M191.957 872.832c-47.616-7.979-86.955-42.88-101.76-90.325-3.968-12.672-4.011-13.568-4.011-94.848v-82.048l5.163-8.405c17.152-27.861 56.149-27.861 73.301 0l5.163 8.405 0.853 76.075c0.939 85.333 0.597 82.816 13.696 95.573 12.117 11.733 14.72 12.075 94.549 12.16 75.435 0.085 77.141 0.256 88.832 9.173 3.285 2.475 8.064 8.149 10.667 12.544 4.053 6.869 4.736 9.941 4.736 20.864 0 10.837-0.725 13.995-4.608 20.651-2.517 4.309-7.424 9.984-10.837 12.587-11.947 9.088-15.445 9.429-94.464 9.216-39.979-0.085-76.587-0.853-81.28-1.621zM669.653 872.277c-9.813-3.157-18.773-10.411-24.192-19.627-3.883-6.656-4.608-9.813-4.608-20.651 0-10.923 0.683-13.995 4.736-20.864 2.603-4.395 7.381-10.069 10.667-12.544 11.691-8.917 13.397-9.088 88.832-9.173 79.829-0.085 82.432-0.427 94.549-12.16 13.099-12.757 12.757-10.24 13.696-95.573l0.853-76.075 5.163-8.405c17.152-27.861 56.149-27.861 73.301 0l5.163 8.405v82.048c0 81.28-0.043 82.176-4.011 94.848-13.013 41.771-45.184 74.112-86.4 86.912-13.653 4.224-13.909 4.267-92.203 4.693-61.483 0.341-80.043-0.043-85.547-1.835zM114.987 317.568c-9.771-3.072-18.731-10.325-24.192-19.584l-4.608-7.851v-81.92c0-81.109 0.043-82.048 4.011-94.72 13.013-41.685 44.416-73.344 86.443-87.253 11.648-3.84 13.824-3.925 90.709-4.523 52.011-0.384 81.067 0 85.504 1.195 9.728 2.645 19.968 10.709 25.472 20.096 4.139 7.040 4.821 10.027 4.821 20.992 0 10.837-0.725 13.995-4.608 20.651-4.736 8.064-12.843 15.275-21.291 18.987-3.499 1.536-25.813 2.389-80.768 2.987l-75.947 0.896-7.851 4.608c-8.021 4.736-15.275 12.8-19.029 21.291-1.536 3.499-2.347 25.387-2.987 80.768l-0.853 75.947-4.608 7.851c-10.411 17.707-30.805 25.643-50.219 19.584zM882.987 317.568c-9.771-3.072-18.731-10.325-24.192-19.584l-4.608-7.851-0.896-75.947c-0.597-54.955-1.451-77.269-2.987-80.768-3.712-8.448-10.923-16.555-18.987-21.291l-7.851-4.608-75.947-0.896c-54.955-0.597-77.269-1.451-80.768-2.987-8.448-3.712-16.555-10.923-21.291-18.987-3.883-6.656-4.608-9.813-4.608-20.651 0-10.965 0.683-13.952 4.821-20.992 5.504-9.387 15.744-17.451 25.472-20.096 4.437-1.195 33.493-1.579 85.504-1.195 76.885 0.597 79.061 0.683 90.709 4.523 42.027 13.909 73.429 45.568 86.443 87.253 3.968 12.672 4.011 13.611 4.011 94.72v81.92l-4.608 7.851c-10.411 17.707-30.805 25.643-50.219 19.584z" />
<glyph unicode="&#xe93e;" glyph-name="maximize-2" d="M626.987 872.235c-9.771-3.072-18.731-10.325-24.192-19.584-3.883-6.656-4.608-9.813-4.608-20.651 0-10.923 0.683-13.995 4.736-20.864 5.333-9.088 13.568-16 22.997-19.371 4.992-1.792 24.064-2.304 86.613-2.347l80.171-0.085-115.413-115.627c-63.488-63.573-116.736-118.229-118.315-121.387-9.771-19.413-1.92-44.629 17.365-55.979 7.040-4.139 9.984-4.821 20.992-4.779 9.045 0 14.549 0.939 18.773 3.157 3.285 1.707 57.984 55.040 121.557 118.485l115.541 115.371 0.512-82.816 0.469-82.816 5.163-8.405c17.152-27.861 56.149-27.861 73.301 0l5.163 8.405 0.469 138.368c0.427 125.312 0.213 139.051-2.347 145.792-3.883 10.283-11.904 18.859-22.016 23.552l-8.533 3.968-135.68-0.085c-105.941-0.085-137.216-0.597-142.72-2.304zM411.307 402.432c-6.613-2.261-23.851-18.773-124.117-118.827l-116.395-116.139-0.512 82.645-0.469 82.688-4.651 7.936c-16.725 28.416-57.6 28.416-74.325 0l-4.651-7.936-0.469-138.24c-0.427-125.184-0.213-138.923 2.347-145.664 3.883-10.283 11.904-18.859 22.016-23.552l8.533-3.968 136.533 0.043c109.611 0.043 137.813 0.512 142.933 2.347 9.429 3.371 17.664 10.283 22.997 19.371 4.053 6.869 4.736 9.941 4.736 20.864 0 10.837-0.725 13.995-4.608 20.651-2.517 4.309-7.424 9.984-10.837 12.587-11.989 9.131-15.061 9.429-100.437 9.429h-78.635l115.413 115.627c63.488 63.573 116.864 118.315 118.571 121.6 2.219 4.224 3.157 9.728 3.157 18.773 0.043 10.88-0.64 13.995-4.565 20.651-10.88 18.475-32 26.155-52.565 19.115z" />
<glyph unicode="&#xe93f;" glyph-name="menu" d="M114.987 744.235c-9.771-3.072-18.731-10.325-24.192-19.584-3.883-6.656-4.608-9.813-4.608-20.651 0-10.923 0.683-13.995 4.736-20.864 5.333-9.088 13.568-16 22.997-19.371 9.515-3.413 786.645-3.413 796.16 0 9.429 3.371 17.664 10.283 22.997 19.371 4.053 6.869 4.736 9.941 4.736 20.864 0 10.837-0.725 13.995-4.608 20.651-5.632 9.515-14.464 16.555-24.832 19.669-11.221 3.371-782.635 3.285-793.387-0.085zM114.987 488.235c-9.771-3.072-18.731-10.325-24.192-19.584-3.883-6.656-4.608-9.813-4.608-20.651 0-10.923 0.683-13.995 4.736-20.864 5.333-9.088 13.568-16 22.997-19.371 9.515-3.413 786.645-3.413 796.16 0 9.429 3.371 17.664 10.283 22.997 19.371 4.053 6.869 4.736 9.941 4.736 20.864 0 10.837-0.725 13.995-4.608 20.651-5.632 9.515-14.464 16.555-24.832 19.669-11.221 3.371-782.635 3.285-793.387-0.085zM114.987 232.235c-9.771-3.072-18.731-10.325-24.192-19.584-3.883-6.656-4.608-9.813-4.608-20.651 0-10.923 0.683-13.995 4.736-20.864 5.333-9.088 13.568-16 22.997-19.371 9.515-3.413 786.645-3.413 796.16 0 9.429 3.371 17.664 10.283 22.997 19.371 4.053 6.869 4.736 9.941 4.736 20.864 0 10.837-0.725 13.995-4.608 20.651-5.632 9.515-14.464 16.555-24.832 19.669-11.221 3.371-782.635 3.285-793.387-0.085z" />
<glyph unicode="&#xe940;" glyph-name="message-circle" d="M502.613 873.643c-59.861-5.888-106.496-19.413-155.563-45.013-38.485-20.096-65.323-39.339-94.848-68.011-83.84-81.408-127.573-189.269-123.648-304.811 1.621-47.531 8.619-82.944 25.344-128.043l8.832-23.765-38.699-116.267c-24.789-74.411-38.699-118.699-38.699-123.093 0-23.467 19.84-43.307 43.307-43.307 4.395 0 48.683 13.909 123.093 38.699l116.267 38.699 23.765-8.832c44.672-16.555 80.469-23.723 127.061-25.344 116.139-4.053 224.213 39.637 305.835 123.733 58.112 59.861 96.469 137.216 109.739 221.312 3.797 23.893 5.205 77.525 2.731 101.632-16.768 162.133-128.853 298.624-284.331 346.155-37.973 11.605-64.853 15.659-108.373 16.384-19.243 0.299-38.059 0.256-41.813-0.128zM569.173 787.584c74.539-8.32 140.203-40.149 192.384-93.227 56.832-57.856 87.851-129.109 91.221-209.664 2.347-55.765-8.832-108.501-33.408-157.525-17.707-35.371-44.672-71.637-69.333-93.355-60.459-53.205-128.256-81.024-204.757-83.925-51.797-2.005-94.379 6.485-146.176 29.056-27.776 12.16-23.253 12.885-119.979-19.328-44.971-15.019-82.048-27.051-82.304-26.752-0.256 0.256 11.392 36.139 25.941 79.744 14.549 43.563 27.051 83.072 27.819 87.765 1.749 11.221 0 18.688-8.96 38.315-37.376 81.835-37.248 179.797 0.341 262.059 19.328 42.411 49.024 82.56 81.067 109.739 50.261 42.581 114.005 70.443 176.171 76.971 19.669 2.048 52.181 2.133 69.973 0.128z" />
</font>
</defs>
</svg>
